<?xml version="1.0" encoding="utf-8"?>
<svg width="800px" height="800px" viewBox="0 0 24 24" fill="none" xmlns="http://www.w3.org/2000/svg" xmlns:bx="https://boxy-svg.com">
  <path d="M -11.775 -17.58 L -8.095 -15.088 L -7.186 -9.488 L -9.733 -4.997 L -13.817 -4.997 L -16.364 -9.488 L -15.455 -15.088 Z" bx:shape="n-gon -11.775 -10.961 4.707 6.619 7 0 1@dcd17a86" style="fill: rgb(186, 218, 85); transform-box: fill-box; transform-origin: 50% 50%; visibility: hidden;" transform="matrix(-1, 0, 0, -1, 23.55, 22.576999)"/>
  <g>
    <path d="M -11.843 -18.207 L -7.06 -10.397 L -16.627 -10.397 L -11.843 -18.207 Z" bx:shape="triangle -16.627 -18.207 9.567 7.81 0.5 0 1@12c9d883" style="transform-box: fill-box; transform-origin: 50% 50%; fill: rgb(238, 220, 60);" transform="matrix(-1, 0, 0, -1, 23.687, 28.604001)"/>
    <circle cx="11.732" cy="10.632" r="1.244" style="fill: rgb(238, 220, 60);" transform="matrix(4.083529, 0, 0, 2.56937, -36.351467, -18.402891)"/>
  </g>
  <path d="M 11.7 4.25 C 11.286 4.25 10.95 4.586 10.95 5 C 10.95 5.414 11.286 5.75 11.7 5.75 L 11.7 4.25 Z M 13.565 5.376 L 13.856 4.684 L 13.855 4.684 L 13.565 5.376 Z M 15.753 7.2 L 15.127 7.613 L 15.127 7.613 L 15.753 7.2 Z M 16.575 9.94 L 17.325 9.94 L 17.325 9.939 L 16.575 9.94 Z M 15.147 13.433 L 14.536 12.998 C 14.527 13.01 14.519 13.023 14.511 13.036 L 15.147 13.433 Z M 13.731 15.7 L 13.095 15.303 L 13.092 15.307 L 13.731 15.7 Z M 11.7 19 L 11.062 19.394 C 11.198 19.615 11.44 19.75 11.7 19.75 C 11.961 19.75 12.202 19.615 12.339 19.393 L 11.7 19 Z M 9.669 15.707 L 10.308 15.313 L 10.306 15.31 L 9.669 15.707 Z M 8.253 13.436 L 8.89 13.039 C 8.882 13.026 8.873 13.014 8.864 13.001 L 8.253 13.436 Z M 6.825 9.943 L 6.075 9.942 L 6.075 9.943 L 6.825 9.943 Z M 7.647 7.2 L 8.273 7.613 L 8.273 7.613 L 7.647 7.2 Z M 9.835 5.379 L 10.125 6.071 L 10.126 6.07 L 9.835 5.379 Z M 11.701 5.75 C 12.115 5.749 12.451 5.413 12.45 4.999 C 12.449 4.585 12.113 4.249 11.699 4.25 L 11.701 5.75 Z M 11.7 5.75 C 12.24 5.75 12.775 5.858 13.275 6.068 L 13.855 4.684 C 13.172 4.398 12.44 4.25 11.7 4.25 L 11.7 5.75 Z M 13.275 6.068 C 14.025 6.382 14.67 6.919 15.127 7.613 L 16.379 6.787 C 15.761 5.849 14.884 5.116 13.856 4.684 L 13.275 6.068 Z M 15.127 7.613 C 15.58 8.299 15.824 9.11 15.825 9.941 L 17.325 9.939 C 17.323 8.817 16.995 7.719 16.379 6.787 L 15.127 7.613 Z M 15.825 9.94 C 15.825 10.504 15.74 10.917 15.556 11.343 C 15.361 11.793 15.046 12.282 14.536 12.998 L 15.757 13.868 C 16.269 13.151 16.668 12.548 16.932 11.938 C 17.207 11.304 17.325 10.686 17.325 9.94 L 15.825 9.94 Z M 14.511 13.036 L 13.095 15.303 L 14.367 16.097 L 15.783 13.83 L 14.511 13.036 Z M 13.092 15.307 L 11.061 18.607 L 12.339 19.393 L 14.37 16.093 L 13.092 15.307 Z M 12.338 18.606 L 10.307 15.313 L 9.031 16.101 L 11.062 19.394 L 12.338 18.606 Z M 10.306 15.31 L 8.89 13.039 L 7.617 13.833 L 9.033 16.104 L 10.306 15.31 Z M 8.864 13.001 C 8.354 12.284 8.039 11.795 7.844 11.344 C 7.66 10.919 7.575 10.507 7.575 9.943 L 6.075 9.943 C 6.075 10.689 6.193 11.306 6.468 11.94 C 6.732 12.55 7.131 13.152 7.642 13.871 L 8.864 13.001 Z M 7.575 9.944 C 7.576 9.111 7.82 8.3 8.273 7.613 L 7.021 6.787 C 6.405 7.72 6.076 8.819 6.075 9.942 L 7.575 9.944 Z M 8.273 7.613 C 8.73 6.92 9.375 6.385 10.125 6.071 L 9.545 4.687 C 8.517 5.118 7.64 5.849 7.021 6.787 L 8.273 7.613 Z M 10.126 6.07 C 10.626 5.859 11.161 5.751 11.701 5.75 L 11.699 4.25 C 10.959 4.251 10.227 4.4 9.544 4.688 L 10.126 6.07 Z" fill="#000000"/>
  <g id="SVGRepo_bgCarrier" stroke-width="0" transform="matrix(0.356798, 0, 0, 0.356798, 7.589499, 5.866386)" style=""/>
  <g id="SVGRepo_tracerCarrier" stroke-linecap="round" stroke-linejoin="round" transform="matrix(0.356798, 0, 0, 0.356798, 7.589499, 5.866386)" style=""/>
  <circle cx="11.667" cy="9.536" r="1.368" style="stroke: rgb(0, 0, 0); stroke-width: 0.5px; pointer-events: none; visibility: hidden;"/>
  <g id="group-1" stroke-width="0" transform="matrix(1, 0, 0, 1, 8.513421, 1.810124)"/>
  <g id="group-2" stroke-linecap="round" stroke-linejoin="round" transform="matrix(1, 0, 0, 1, 8.513421, 1.810124)"/>
  <path d="M 14.211 11.003 C 14.211 9.915 13.906 9.096 13.306 8.568 C 12.592 7.938 11.732 7.969 11.512 7.989 L 11.124 7.989 C 11.078 7.836 10.931 7.724 10.755 7.724 L 10.56 7.724 C 10.385 7.724 10.238 7.836 10.191 7.989 L 8.826 7.989 L 8.826 9.145 L 10.176 9.145 L 10.176 9.26 C 10.176 9.459 10.349 9.621 10.56 9.621 L 10.755 9.621 C 10.967 9.621 11.14 9.459 11.14 9.26 L 11.14 9.145 L 11.541 9.145 L 11.573 9.147 L 11.608 9.142 C 11.614 9.141 12.154 9.089 12.55 9.444 C 12.884 9.744 13.053 10.269 13.053 11.003 L 14.211 11.003 Z M 9.974 7.558 L 11.373 7.558 C 11.539 7.558 11.674 7.423 11.674 7.259 L 11.674 7.104 C 11.674 6.938 11.539 6.804 11.373 6.804 L 9.974 6.804 C 9.974 6.804 9.974 6.804 9.974 6.804 C 9.808 6.804 9.674 6.937 9.674 7.103 L 9.674 7.259 C 9.674 7.424 9.808 7.558 9.974 7.558 C 9.974 7.558 9.974 7.558 9.974 7.558 Z M 13.852 11.299 L 13.656 11.08 L 13.462 11.299 C 13.316 11.464 12.843 12.029 12.843 12.405 C 12.843 12.853 13.208 13.218 13.656 13.218 C 14.105 13.218 14.469 12.853 14.469 12.405 C 14.469 12.029 13.998 11.464 13.852 11.299 Z M 13.656 12.699 C 13.494 12.699 13.363 12.567 13.361 12.404 C 13.363 12.324 13.49 12.107 13.656 11.883 C 13.824 12.107 13.95 12.323 13.951 12.404 C 13.951 12.567 13.82 12.699 13.656 12.699 Z" style="stroke-width: 0.023; fill: rgb(0, 0, 0);"/>
</svg>