<?xml version="1.0" encoding="utf-8"?>
<svg width="800px" height="800px" viewBox="0 0 24 24" fill="none" xmlns="http://www.w3.org/2000/svg" xmlns:bx="https://boxy-svg.com">
  <path d="M -11.775 -17.58 L -8.095 -15.088 L -7.186 -9.488 L -9.733 -4.997 L -13.817 -4.997 L -16.364 -9.488 L -15.455 -15.088 Z" bx:shape="n-gon -11.775 -10.961 4.707 6.619 7 0 1@dcd17a86" style="fill: rgb(186, 218, 85); transform-box: fill-box; transform-origin: 50% 50%; visibility: hidden;" transform="matrix(-1, 0, 0, -1, 23.55, 22.576999)"/>
  <g>
    <path d="M -11.843 -18.207 L -7.06 -10.397 L -16.627 -10.397 L -11.843 -18.207 Z" bx:shape="triangle -16.627 -18.207 9.567 7.81 0.5 0 1@12c9d883" style="transform-box: fill-box; transform-origin: 50% 50%; fill: rgb(238, 220, 60);" transform="matrix(-1, 0, 0, -1, 23.687, 28.604001)"/>
    <circle cx="11.732" cy="10.632" r="1.244" style="fill: rgb(238, 220, 60);" transform="matrix(4.083529, 0, 0, 2.56937, -36.351467, -18.402891)"/>
  </g>
  <path d="M 11.7 4.25 C 11.286 4.25 10.95 4.586 10.95 5 C 10.95 5.414 11.286 5.75 11.7 5.75 L 11.7 4.25 Z M 13.565 5.376 L 13.856 4.684 L 13.855 4.684 L 13.565 5.376 Z M 15.753 7.2 L 15.127 7.613 L 15.127 7.613 L 15.753 7.2 Z M 16.575 9.94 L 17.325 9.94 L 17.325 9.939 L 16.575 9.94 Z M 15.147 13.433 L 14.536 12.998 C 14.527 13.01 14.519 13.023 14.511 13.036 L 15.147 13.433 Z M 13.731 15.7 L 13.095 15.303 L 13.092 15.307 L 13.731 15.7 Z M 11.7 19 L 11.062 19.394 C 11.198 19.615 11.44 19.75 11.7 19.75 C 11.961 19.75 12.202 19.615 12.339 19.393 L 11.7 19 Z M 9.669 15.707 L 10.308 15.313 L 10.306 15.31 L 9.669 15.707 Z M 8.253 13.436 L 8.89 13.039 C 8.882 13.026 8.873 13.014 8.864 13.001 L 8.253 13.436 Z M 6.825 9.943 L 6.075 9.942 L 6.075 9.943 L 6.825 9.943 Z M 7.647 7.2 L 8.273 7.613 L 8.273 7.613 L 7.647 7.2 Z M 9.835 5.379 L 10.125 6.071 L 10.126 6.07 L 9.835 5.379 Z M 11.701 5.75 C 12.115 5.749 12.451 5.413 12.45 4.999 C 12.449 4.585 12.113 4.249 11.699 4.25 L 11.701 5.75 Z M 11.7 5.75 C 12.24 5.75 12.775 5.858 13.275 6.068 L 13.855 4.684 C 13.172 4.398 12.44 4.25 11.7 4.25 L 11.7 5.75 Z M 13.275 6.068 C 14.025 6.382 14.67 6.919 15.127 7.613 L 16.379 6.787 C 15.761 5.849 14.884 5.116 13.856 4.684 L 13.275 6.068 Z M 15.127 7.613 C 15.58 8.299 15.824 9.11 15.825 9.941 L 17.325 9.939 C 17.323 8.817 16.995 7.719 16.379 6.787 L 15.127 7.613 Z M 15.825 9.94 C 15.825 10.504 15.74 10.917 15.556 11.343 C 15.361 11.793 15.046 12.282 14.536 12.998 L 15.757 13.868 C 16.269 13.151 16.668 12.548 16.932 11.938 C 17.207 11.304 17.325 10.686 17.325 9.94 L 15.825 9.94 Z M 14.511 13.036 L 13.095 15.303 L 14.367 16.097 L 15.783 13.83 L 14.511 13.036 Z M 13.092 15.307 L 11.061 18.607 L 12.339 19.393 L 14.37 16.093 L 13.092 15.307 Z M 12.338 18.606 L 10.307 15.313 L 9.031 16.101 L 11.062 19.394 L 12.338 18.606 Z M 10.306 15.31 L 8.89 13.039 L 7.617 13.833 L 9.033 16.104 L 10.306 15.31 Z M 8.864 13.001 C 8.354 12.284 8.039 11.795 7.844 11.344 C 7.66 10.919 7.575 10.507 7.575 9.943 L 6.075 9.943 C 6.075 10.689 6.193 11.306 6.468 11.94 C 6.732 12.55 7.131 13.152 7.642 13.871 L 8.864 13.001 Z M 7.575 9.944 C 7.576 9.111 7.82 8.3 8.273 7.613 L 7.021 6.787 C 6.405 7.72 6.076 8.819 6.075 9.942 L 7.575 9.944 Z M 8.273 7.613 C 8.73 6.92 9.375 6.385 10.125 6.071 L 9.545 4.687 C 8.517 5.118 7.64 5.849 7.021 6.787 L 8.273 7.613 Z M 10.126 6.07 C 10.626 5.859 11.161 5.751 11.701 5.75 L 11.699 4.25 C 10.959 4.251 10.227 4.4 9.544 4.688 L 10.126 6.07 Z" fill="#000000"/>
  <g id="SVGRepo_bgCarrier" stroke-width="0" transform="matrix(0.356798, 0, 0, 0.356798, 7.589499, 5.866386)" style=""/>
  <g id="SVGRepo_tracerCarrier" stroke-linecap="round" stroke-linejoin="round" transform="matrix(0.356798, 0, 0, 0.356798, 7.589499, 5.866386)" style=""/>
  <circle cx="11.667" cy="9.536" r="1.368" style="stroke: rgb(0, 0, 0); stroke-width: 0.5px; pointer-events: none; visibility: hidden;"/>
  <g id="group-1" stroke-width="0" transform="matrix(1, 0, 0, 1, 8.513421, 1.810124)"/>
  <g id="group-2" stroke-linecap="round" stroke-linejoin="round" transform="matrix(1, 0, 0, 1, 8.513421, 1.810124)"/>
  <g id="Layer_1" transform="matrix(1, 0, 0, 1, 10.150416, -1.102913)">
    <g style="" transform="matrix(0.118384, 0, 0, 0.118384, -1.97693, 6.645611)">
      <path d="M16.4,19.4c-1.3,0-2.3,1-2.3,2.3v4.6c0,1.3,1,2.3,2.3,2.3h5.7c1.3,0,2.3-1,2.3-2.3v-4.6c0-1.3-1-2.3-2.3-2.3H16.4z    M20.5,24.6h-2.3v-1.2h2.3V24.6z" style="fill: rgb(0, 0, 0);"/>
      <path d="M56.8,47.5C56.8,47.5,56.8,47.5,56.8,47.5c-0.1,0-0.1-0.1-0.1-0.1c-2.6-1.4-5-3-7.2-5.1c-2-2-3.5-4.2-4.8-6.7   c-2.9-5.1-7.1-9.1-12.4-11.6c0-0.7,0-1.4,0-2.2c0-1.6,0-3.2,0-4.8c0,0,0-0.1,0-0.1c0,0,0,0,0-0.1c0-0.6-0.4-1.1-0.8-1.4   c-0.1-0.1-0.1-0.1-0.2-0.2c-3.7-2.6-7.4-5.2-11-7.7c-0.5-0.4-1.5-0.4-2,0C14.6,10.4,11,13.2,7.3,16c0,0-0.1,0.1-0.1,0.1   c-0.5,0.3-0.9,0.8-0.9,1.6c0,11.2,0,22.4,0,33.6c0,1.6,0,3.2,0,4.8c0,2.6,4,2.6,4,0c0-1.2,0-2.5,0-3.7h18c0,1.2,0,2.5,0,3.7   c0,2.6,4,2.6,4,0c0-6,0-11.9,0-17.9c0.1,0.1,0.2,0.2,0.3,0.4c0.2,0.3,0.2,0.3,0.6,0.8c0.3,0.4,0.6,0.9,0.9,1.4   c1.6,2.5,3.2,5.1,5,7.5c2,2.6,4.1,5.2,6.8,7.1c2.9,2.1,6.2,3,9.7,3.1c0.9,0,1.4-0.4,1.7-1c0.2-0.3,0.3-0.6,0.3-1c0-2.1,0-4.2,0-6.3   c0-0.3,0-0.6,0-0.9c0,0,0,0,0,0C57.7,48.6,57.5,48,56.8,47.5z M10.3,35.7h18c0,1.4,0,2.9,0,4.3h-18C10.3,38.6,10.3,37.2,10.3,35.7z    M28.3,18.1c0,4.5,0,9.1,0,13.6h-18c0-3.1,0-6.2,0-9.2c0-1.3,0-2.5,0-3.8c3-2.3,6-4.6,9-6.8C22.3,13.9,25.3,16,28.3,18.1z M10.3,44   h18c0,1.4,0,2.9,0,4.3h-18C10.3,46.9,10.3,45.5,10.3,44z M41.6,44.8c-1.6-2.2-3-4.5-4.5-6.7c-1.4-2.1-3-3.7-4.9-5.3   c0-1.4,0-2.8,0-4.1c1.5,0.8,2.9,1.8,4.1,2.9c2.4,2.2,3.9,4.7,5.5,7.5c2.8,4.9,6.9,8.6,11.7,11.4c0,1.3,0,2.5,0,3.8   c-2.3-0.4-4.3-1.2-6.1-2.7C45.2,49.6,43.3,47.2,41.6,44.8z" style="fill: rgb(0, 0, 0);"/>
    </g>
  </g>
</svg>