<?xml version="1.0" encoding="utf-8"?>
<svg fill="#000000" height="800px" width="800px" version="1.1" id="Capa_1" xmlns="http://www.w3.org/2000/svg" viewBox="0 0 212.715 212.715">
  <g style="" transform="matrix(0.796694, 0, 0, 0.796694, 20.686871, -0.453773)">
    <path d="M211.436,187.771L112.843,17.002c-1.34-2.32-3.815-3.75-6.495-3.75c-2.68,0-5.155,1.43-6.495,3.75L1.005,188.213 c-1.34,2.32-1.34,5.18,0,7.5c1.34,2.32,3.816,3.75,6.495,3.75h197.695c0.007,0,0.015,0,0.02,0c4.143,0,7.5-3.357,7.5-7.5 C212.715,190.41,212.243,188.968,211.436,187.771z M20.49,184.463l85.857-148.711l85.857,148.711H20.49z"/>
    <path d="M98.848,76.58v63.879c0,4.143,3.357,7.5,7.5,7.5s7.5-3.357,7.5-7.5V76.58c0-4.143-3.357-7.5-7.5-7.5 S98.848,72.438,98.848,76.58z"/>
    <circle cx="106.348" cy="164.007" r="9.328"/>
  </g>
  <path style="fill: rgb(216, 216, 216); stroke: rgb(0, 0, 0); stroke-width: 10;" d="M 53.776 168.3 L 106.567 200.621 L 158.307 166.154"/>
</svg>