<?xml version="1.0" encoding="utf-8"?>
<svg width="800px" height="800px" viewBox="0 0 1024 1024" fill="#000000" class="icon" version="1.1" xmlns="http://www.w3.org/2000/svg">
  <path d="M 813.493 540.634 C 813.493 416.053 778.641 322.183 709.917 261.681 C 628.075 189.572 529.647 193.069 504.444 195.334 L 459.971 195.334 C 454.768 177.965 437.903 165.099 417.68 165.099 L 395.554 165.099 C 375.332 165.099 358.466 177.936 353.207 195.334 L 196.823 195.334 L 196.823 327.861 L 351.418 327.861 L 351.418 341.008 C 351.418 363.803 371.248 382.377 395.555 382.377 L 417.68 382.377 C 442.043 382.377 461.819 363.833 461.819 341.008 L 461.819 327.861 L 507.83 327.861 L 511.381 327.945 L 515.521 327.415 C 516.166 327.331 578.064 321.317 623.321 362.014 C 661.613 396.418 680.969 456.499 680.969 540.635 L 813.496 540.635 L 813.493 540.634 Z M 328.313 146.106 L 488.585 146.106 C 507.563 146.09 522.944 130.708 522.961 111.731 L 522.961 94.025 C 522.945 75.045 507.563 59.664 488.587 59.648 L 328.313 59.648 C 328.313 59.648 328.313 59.648 328.313 59.648 C 309.321 59.648 293.926 75.036 293.909 94.022 L 293.909 111.756 C 293.94 130.733 309.332 146.106 328.313 146.106 C 328.313 146.106 328.313 146.106 328.313 146.106 Z M 772.348 574.534 L 750.056 549.277 L 727.764 574.534 C 711.149 593.358 656.914 658.194 656.914 701.13 C 656.914 752.484 698.702 794.272 750.057 794.272 C 801.414 794.272 843.202 752.487 843.202 701.13 C 843.202 658.194 789.022 593.359 772.352 574.534 L 772.348 574.534 Z M 750.055 734.834 C 731.443 734.803 716.365 719.716 716.35 701.104 C 716.406 691.899 730.894 667.006 750.055 641.301 C 769.298 666.95 783.646 691.843 783.759 701.102 C 783.759 719.73 768.683 734.834 750.055 734.834 Z" style=""/>
  <path style="fill: rgb(216, 216, 216); stroke: rgb(0, 0, 0); stroke-width: 50;" d="M 267.742 821.926 L 490.887 958.543 L 709.584 812.852"/>
</svg>