<?xml version="1.0" encoding="utf-8"?>
<svg fill="#000000" width="800px" height="800px" viewBox="0 0 24 24" xmlns="http://www.w3.org/2000/svg">
  <g data-name="Layer 2" transform="matrix(0.79704, 0, 0, 0.79704, 2.435518, 0.40592)" style="">
    <g data-name="menu-arrow-circle">
      <rect width="24" height="24" transform="rotate(180 12 12)" opacity="0"/>
      <path d="M12 2a10 10 0 1 0 10 10A10 10 0 0 0 12 2zm0 18a8 8 0 1 1 8-8 8 8 0 0 1-8 8z"/>
      <path d="M12 6a3.5 3.5 0 0 0-3.5 3.5 1 1 0 0 0 2 0A1.5 1.5 0 1 1 12 11a1 1 0 0 0-1 1v2a1 1 0 0 0 2 0v-1.16A3.49 3.49 0 0 0 12 6z"/>
      <circle cx="12" cy="17" r="1"/>
    </g>
  </g>
  <path style="fill: rgb(216, 216, 216); stroke: rgb(0, 0, 0); stroke-width: 1;" d="M 6.952 19.459 L 12.051 22.581 L 17.048 19.252"/>
</svg>