<?xml version="1.0" encoding="utf-8"?>
<svg fill="#000000" height="800px" width="800px" version="1.1" id="Capa_1" xmlns="http://www.w3.org/2000/svg" viewBox="0 0 512 512">
  <path d="M 362.145 134.385 C 358.422 120.057 346.584 108.345 331.014 102.091 L 331.014 90.682 C 331.014 78.615 322.718 68.449 311.53 65.585 C 311.563 65.32 311.586 65.052 311.586 64.779 C 311.586 32.641 285.44 6.495 253.302 6.495 C 221.165 6.495 195.019 32.641 195.019 64.779 L 195.019 130.652 C 187.482 133.325 182.067 140.523 182.067 148.966 L 182.067 408.004 L 175.591 408.004 C 172.014 408.004 169.115 410.904 169.115 414.48 C 169.115 418.056 172.014 420.956 175.591 420.956 L 227.399 420.956 C 230.975 420.956 233.875 418.056 233.875 414.48 C 233.875 410.904 230.975 408.004 227.399 408.004 L 220.922 408.004 L 220.922 148.966 C 220.922 140.523 215.508 133.325 207.97 130.652 L 207.97 64.779 C 207.97 39.783 228.307 19.447 253.302 19.447 C 278.298 19.447 298.634 39.783 298.634 64.779 C 298.634 65.052 298.657 65.32 298.69 65.585 C 287.502 68.449 279.207 78.615 279.207 90.682 L 279.207 102.091 C 263.637 108.345 251.799 120.058 248.076 134.386 C 247.571 136.325 247.993 138.391 249.221 139.976 C 250.448 141.563 252.339 142.49 254.344 142.49 L 279.207 142.49 C 279.207 156.775 290.827 168.395 305.11 168.395 C 319.395 168.395 331.015 156.775 331.015 142.49 L 355.878 142.49 C 357.883 142.49 359.774 141.563 361 139.976 C 362.228 138.39 362.65 136.325 362.145 134.385 Z M 201.496 142.49 C 205.066 142.49 207.971 145.395 207.971 148.966 L 207.971 356.197 L 195.02 356.197 L 195.02 148.966 C 195.02 145.395 197.924 142.49 201.496 142.49 Z M 195.02 408.004 L 195.02 369.148 L 207.971 369.148 L 207.971 408.004 L 195.02 408.004 Z M 292.159 90.682 C 292.159 83.541 297.97 77.73 305.11 77.73 C 312.252 77.73 318.062 83.541 318.062 90.682 L 318.062 98.347 C 313.877 97.572 309.539 97.159 305.11 97.159 C 300.682 97.159 296.345 97.572 292.159 98.347 L 292.159 90.682 Z M 305.11 155.442 C 297.97 155.442 292.159 149.631 292.159 142.49 L 318.062 142.49 C 318.062 149.631 312.252 155.442 305.11 155.442 Z M 264.171 129.539 C 271.55 117.916 287.344 110.11 305.11 110.11 C 322.876 110.11 338.671 117.916 346.051 129.539 L 264.171 129.539 Z" style=""/>
  <path style="fill: rgb(216, 216, 216); stroke: rgb(0, 0, 0); stroke-width: 15;" d="M 157.06 434.862 L 247.756 490.39 L 336.645 431.173"/>
</svg>