<?xml version="1.0" encoding="utf-8"?>
<svg fill="#000000" height="800px" width="800px" version="1.1" id="Layer_1" xmlns="http://www.w3.org/2000/svg" viewBox="0 0 503.468 503.468">
  <g style="" transform="matrix(0.784354, 0, 0, 0.784354, 56.414391, 6.386486)">
    <g>
      <g>
        <path d="M485.265,25.6H435.2v-7.398C435.2,8.154,427.051,0,416.998,0h-31.863c-10.053,0-18.202,8.154-18.202,18.202v7.505 C180.344,30.162,30.16,180.346,25.705,366.935h-7.501c-10.055,0-18.202,8.147-18.202,18.202V417 c0,10.055,8.147,18.202,18.202,18.202h7.398v50.065c0,10.055,8.147,18.202,18.202,18.202H161 c10.048,0,18.202-8.149,18.202-18.202v-50.065h7.398c10.048,0,18.202-8.149,18.202-18.202v-31.863 c0-10.053-8.154-18.202-18.202-18.202h-15.744c4.352-106.402,89.675-191.725,196.077-196.077v15.74 c0,10.055,8.147,18.202,18.202,18.202h31.863c10.055,0,18.202-8.147,18.202-18.202V179.2h50.065 c10.055,0,18.202-8.147,18.202-18.202V43.802C503.467,33.754,495.318,25.6,485.265,25.6z M162.135,485.267 c0,0.625-0.51,1.135-1.135,1.135H43.803c-0.629,0-1.135-0.506-1.135-1.135v-50.065h119.467V485.267z M187.735,385.137V417 c0,0.625-0.51,1.135-1.135,1.135h-7.398h-153.6h-7.398c-0.629,0-1.135-0.506-1.135-1.135v-31.863 c0-0.629,0.506-1.135,1.135-1.135H25.6h145.067H186.6C187.225,384.002,187.735,384.512,187.735,385.137z M247.467,194.189 v-14.987c0-4.713-3.82-8.533-8.533-8.533h-17.067v-25.6c0-4.713-3.82-8.533-8.533-8.533h-25.6c-4.713,0-8.533,3.82-8.533,8.533 s3.82,8.533,8.533,8.533H204.8v25.6c0,4.713,3.82,8.533,8.533,8.533H230.4v17.067c0,0.847,0.128,1.663,0.357,2.435 c-45.246,38.946-74.587,95.844-76.997,159.698l-110.987,0c4.448-177.163,146.997-319.712,324.16-324.16v110.987 C322.509,155.438,281.457,170.158,247.467,194.189z M418.133,186.598c0,0.629-0.506,1.135-1.135,1.135h-31.863 c-0.629,0-1.135-0.506-1.135-1.135v-15.93V25.602v-7.4c0-0.625,0.51-1.135,1.135-1.135h31.863c0.625,0,1.135,0.51,1.135,1.135 V25.6v153.6V186.598z M486.4,160.998c0,0.629-0.506,1.135-1.135,1.135H435.2V42.667h50.065c0.625,0,1.135,0.51,1.135,1.135 V160.998z"/>
        <path d="M288.691,234.186c-3.38-5.05-10.805-5.049-14.184,0.001l-25.054,37.444c-15.887,25.487-15.9,48.4,1.058,65.359 c17.174,17.174,45.011,17.174,62.184,0c17.004-17.014,16.989-43.305,0.884-65.609L288.691,234.186z M300.627,324.924 c-10.507,10.507-27.538,10.507-38.046-0.002c-10.692-10.692-10.684-24.947,1.208-44.032l17.812-26.615l17.971,26.849 C311.25,297.306,311.259,314.285,300.627,324.924z"/>
        <path d="M382.558,345.119c-3.38-5.05-10.805-5.049-14.184,0.001l-25.054,37.444c-15.886,25.487-15.9,48.401,1.058,65.359 c17.174,17.174,45.011,17.174,62.184,0c17.004-17.014,16.989-43.305,0.884-65.609L382.558,345.119z M394.493,435.857 c-10.507,10.507-27.538,10.507-38.046-0.002c-10.692-10.692-10.684-24.947,1.208-44.032l17.812-26.615l17.971,26.849 C405.116,408.24,405.126,425.218,394.493,435.857z"/>
      </g>
    </g>
  </g>
  <path style="fill: rgb(216, 216, 216); stroke: rgb(0, 0, 0); stroke-width: 20;" d="M 142.175 413.816 L 248.643 479.001 L 352.99 409.487"/>
</svg>