<?xml version="1.0" encoding="utf-8"?>
<svg width="800px" height="800px" viewBox="0 0 24 24" fill="none" xmlns="http://www.w3.org/2000/svg" xmlns:bx="https://boxy-svg.com">
  <path d="M -12.081 -17.58 L -8.401 -15.088 L -7.492 -9.488 L -10.039 -4.997 L -14.123 -4.997 L -16.67 -9.488 L -15.761 -15.088 Z" bx:shape="n-gon -12.081 -10.961 4.707 6.619 7 0 1@062c2cff" style="fill: rgb(186, 218, 85); visibility: hidden; transform-box: fill-box; transform-origin: 50% 50%;" transform="matrix(-1, 0, 0, -1, 24.161999, 22.576999)"/>
  <g transform="matrix(1, 0, 0, 1, 0.306401, 0)">
    <path d="M -11.843 -18.207 L -7.06 -10.397 L -16.627 -10.397 L -11.843 -18.207 Z" bx:shape="triangle -16.627 -18.207 9.567 7.81 0.5 0 1@12c9d883" style="transform-box: fill-box; transform-origin: 50% 50%; fill: rgb(76, 184, 80);" transform="matrix(-1, 0, 0, -1, 23.687, 28.604001)"/>
    <circle cx="11.732" cy="10.632" r="1.244" style="fill: rgb(76, 184, 80);" transform="matrix(4.083529, 0, 0, 2.56937, -36.351467, -18.402891)"/>
  </g>
  <path d="M 12.006 4.25 C 11.592 4.25 11.256 4.586 11.256 5 C 11.256 5.414 11.592 5.75 12.006 5.75 L 12.006 4.25 Z M 13.871 5.376 L 14.162 4.684 L 14.161 4.684 L 13.871 5.376 Z M 16.059 7.2 L 15.433 7.613 L 16.059 7.2 Z M 16.881 9.94 L 17.631 9.94 L 17.631 9.939 L 16.881 9.94 Z M 15.453 13.433 L 14.842 12.998 C 14.833 13.01 14.825 13.023 14.817 13.036 L 15.453 13.433 Z M 14.037 15.7 L 13.401 15.303 L 13.398 15.307 L 14.037 15.7 Z M 12.006 19 L 11.368 19.394 C 11.504 19.615 11.746 19.75 12.006 19.75 C 12.267 19.75 12.508 19.615 12.645 19.393 L 12.006 19 Z M 9.975 15.707 L 10.614 15.313 L 10.612 15.31 L 9.975 15.707 Z M 8.559 13.436 L 9.196 13.039 C 9.188 13.026 9.179 13.014 9.17 13.001 L 8.559 13.436 Z M 7.131 9.943 L 6.381 9.942 L 6.381 9.943 L 7.131 9.943 Z M 7.953 7.2 L 8.579 7.613 L 7.953 7.2 Z M 10.141 5.379 L 10.431 6.071 L 10.432 6.07 L 10.141 5.379 Z M 12.007 5.75 C 12.421 5.749 12.757 5.413 12.756 4.999 C 12.755 4.585 12.419 4.249 12.005 4.25 L 12.007 5.75 Z M 12.006 5.75 C 12.546 5.75 13.081 5.858 13.581 6.068 L 14.161 4.684 C 13.478 4.398 12.746 4.25 12.006 4.25 L 12.006 5.75 Z M 13.581 6.068 C 14.331 6.382 14.976 6.919 15.433 7.613 L 16.685 6.787 C 16.067 5.849 15.19 5.116 14.162 4.684 L 13.581 6.068 Z M 15.433 7.613 C 15.886 8.299 16.13 9.11 16.131 9.941 L 17.631 9.939 C 17.629 8.817 17.301 7.719 16.685 6.787 L 15.433 7.613 Z M 16.131 9.94 C 16.131 10.504 16.046 10.917 15.862 11.343 C 15.667 11.793 15.352 12.282 14.842 12.998 L 16.063 13.868 C 16.575 13.151 16.974 12.548 17.238 11.938 C 17.513 11.304 17.631 10.686 17.631 9.94 L 16.131 9.94 Z M 14.817 13.036 L 13.401 15.303 L 14.673 16.097 L 16.089 13.83 L 14.817 13.036 Z M 13.398 15.307 L 11.367 18.607 L 12.645 19.393 L 14.676 16.093 L 13.398 15.307 Z M 12.644 18.606 L 10.613 15.313 L 9.337 16.101 L 11.368 19.394 L 12.644 18.606 Z M 10.612 15.31 L 9.196 13.039 L 7.923 13.833 L 9.339 16.104 L 10.612 15.31 Z M 9.17 13.001 C 8.66 12.284 8.345 11.795 8.15 11.344 C 7.966 10.919 7.881 10.507 7.881 9.943 L 6.381 9.943 C 6.381 10.689 6.499 11.306 6.774 11.94 C 7.038 12.55 7.437 13.152 7.948 13.871 L 9.17 13.001 Z M 7.881 9.944 C 7.882 9.111 8.126 8.3 8.579 7.613 L 7.327 6.787 C 6.711 7.72 6.382 8.819 6.381 9.942 L 7.881 9.944 Z M 8.579 7.613 C 9.036 6.92 9.681 6.385 10.431 6.071 L 9.851 4.687 C 8.823 5.118 7.946 5.849 7.327 6.787 L 8.579 7.613 Z M 10.432 6.07 C 10.932 5.859 11.467 5.751 12.007 5.75 L 12.005 4.25 C 11.265 4.251 10.533 4.4 9.85 4.688 L 10.432 6.07 Z" fill="#000000"/>
  <g id="SVGRepo_bgCarrier" stroke-width="0" transform="matrix(0.356798, 0, 0, 0.356798, 7.8959, 5.866386)" style=""/>
  <g id="SVGRepo_tracerCarrier" stroke-linecap="round" stroke-linejoin="round" transform="matrix(0.356798, 0, 0, 0.356798, 7.8959, 5.866386)" style=""/>
  <circle cx="11.667" cy="9.536" r="1.368" style="stroke: rgb(0, 0, 0); stroke-width: 0.5px; pointer-events: none; visibility: hidden;"/>
  <g id="group-1" stroke-width="0" transform="matrix(1, 0, 0, 1, 8.819822, 1.810124)"/>
  <g id="group-2" stroke-linecap="round" stroke-linejoin="round" transform="matrix(1, 0, 0, 1, 8.819822, 1.810124)"/>
  <path d="M 14.517 11.003 C 14.517 9.915 14.212 9.096 13.612 8.568 C 12.898 7.938 12.038 7.969 11.818 7.989 L 11.43 7.989 C 11.384 7.836 11.237 7.724 11.061 7.724 L 10.866 7.724 C 10.691 7.724 10.544 7.836 10.497 7.989 L 9.132 7.989 L 9.132 9.145 L 10.482 9.145 L 10.482 9.26 C 10.482 9.459 10.655 9.621 10.866 9.621 L 11.061 9.621 C 11.273 9.621 11.446 9.459 11.446 9.26 L 11.446 9.145 L 11.847 9.145 L 11.879 9.147 L 11.914 9.142 C 11.92 9.141 12.46 9.089 12.856 9.444 C 13.19 9.744 13.359 10.269 13.359 11.003 L 14.517 11.003 Z M 10.28 7.558 L 11.679 7.558 C 11.845 7.558 11.98 7.423 11.98 7.259 L 11.98 7.104 C 11.98 6.938 11.845 6.804 11.679 6.804 L 10.28 6.804 C 10.28 6.804 10.28 6.804 10.28 6.804 C 10.114 6.804 9.98 6.937 9.98 7.103 L 9.98 7.259 C 9.98 7.424 10.114 7.558 10.28 7.558 C 10.28 7.558 10.28 7.558 10.28 7.558 Z M 14.158 11.299 L 13.962 11.08 L 13.768 11.299 C 13.622 11.464 13.149 12.029 13.149 12.405 C 13.149 12.853 13.514 13.218 13.962 13.218 C 14.411 13.218 14.775 12.853 14.775 12.405 C 14.775 12.029 14.304 11.464 14.158 11.299 Z M 13.962 12.699 C 13.8 12.699 13.669 12.567 13.667 12.404 C 13.669 12.324 13.796 12.107 13.962 11.883 C 14.13 12.107 14.256 12.323 14.257 12.404 C 14.257 12.567 14.126 12.699 13.962 12.699 Z" style="stroke-width: 0.023; fill: rgb(0, 0, 0);"/>
</svg>