<?xml version="1.0" encoding="utf-8"?>
<svg width="800px" height="800px" viewBox="0 0 24 24" fill="none" xmlns="http://www.w3.org/2000/svg" xmlns:bx="https://boxy-svg.com">
  <path d="M -12.085 -17.58 L -8.405 -15.088 L -7.496 -9.488 L -10.043 -4.997 L -14.127 -4.997 L -16.674 -9.488 L -15.765 -15.088 Z" bx:shape="n-gon -12.085 -10.961 4.707 6.619 7 0 1@a66126d0" style="fill: rgb(186, 218, 85); visibility: hidden; transform-box: fill-box; transform-origin: 50% 50%;" transform="matrix(-1, 0, 0, -1, 24.169999, 22.576999)"/>
  <g transform="matrix(1, 0, 0, 1, 0.30984, 0)">
    <path d="M -11.843 -18.207 L -7.06 -10.397 L -16.627 -10.397 L -11.843 -18.207 Z" bx:shape="triangle -16.627 -18.207 9.567 7.81 0.5 0 1@12c9d883" style="transform-box: fill-box; transform-origin: 50% 50%; fill: rgb(76, 184, 80);" transform="matrix(-1, 0, 0, -1, 23.687, 28.604001)"/>
    <circle cx="11.732" cy="10.632" r="1.244" style="fill: rgb(76, 184, 80);" transform="matrix(4.083529, 0, 0, 2.56937, -36.351467, -18.402891)"/>
  </g>
  <path d="M 12.01 4.25 C 11.596 4.25 11.26 4.586 11.26 5 C 11.26 5.414 11.596 5.75 12.01 5.75 L 12.01 4.25 Z M 13.875 5.376 L 14.166 4.684 L 14.165 4.684 L 13.875 5.376 Z M 16.063 7.2 L 15.437 7.613 L 16.063 7.2 Z M 16.885 9.94 L 17.635 9.94 L 17.635 9.939 L 16.885 9.94 Z M 15.457 13.433 L 14.846 12.998 C 14.837 13.01 14.829 13.023 14.821 13.036 L 15.457 13.433 Z M 14.041 15.7 L 13.405 15.303 L 13.402 15.307 L 14.041 15.7 Z M 12.01 19 L 11.372 19.394 C 11.508 19.615 11.75 19.75 12.01 19.75 C 12.271 19.75 12.512 19.615 12.649 19.393 L 12.01 19 Z M 9.979 15.707 L 10.618 15.313 L 10.616 15.31 L 9.979 15.707 Z M 8.563 13.436 L 9.2 13.039 C 9.192 13.026 9.183 13.014 9.174 13.001 L 8.563 13.436 Z M 7.135 9.943 L 6.385 9.942 L 6.385 9.943 L 7.135 9.943 Z M 7.957 7.2 L 8.583 7.613 L 7.957 7.2 Z M 10.145 5.379 L 10.435 6.071 L 10.436 6.07 L 10.145 5.379 Z M 12.011 5.75 C 12.425 5.749 12.761 5.413 12.76 4.999 C 12.759 4.585 12.423 4.249 12.009 4.25 L 12.011 5.75 Z M 12.01 5.75 C 12.55 5.75 13.085 5.858 13.585 6.068 L 14.165 4.684 C 13.482 4.398 12.75 4.25 12.01 4.25 L 12.01 5.75 Z M 13.585 6.068 C 14.335 6.382 14.98 6.919 15.437 7.613 L 16.689 6.787 C 16.071 5.849 15.194 5.116 14.166 4.684 L 13.585 6.068 Z M 15.437 7.613 C 15.89 8.299 16.134 9.11 16.135 9.941 L 17.635 9.939 C 17.633 8.817 17.305 7.719 16.689 6.787 L 15.437 7.613 Z M 16.135 9.94 C 16.135 10.504 16.05 10.917 15.866 11.343 C 15.671 11.793 15.356 12.282 14.846 12.998 L 16.067 13.868 C 16.579 13.151 16.978 12.548 17.242 11.938 C 17.517 11.304 17.635 10.686 17.635 9.94 L 16.135 9.94 Z M 14.821 13.036 L 13.405 15.303 L 14.677 16.097 L 16.093 13.83 L 14.821 13.036 Z M 13.402 15.307 L 11.371 18.607 L 12.649 19.393 L 14.68 16.093 L 13.402 15.307 Z M 12.648 18.606 L 10.617 15.313 L 9.341 16.101 L 11.372 19.394 L 12.648 18.606 Z M 10.616 15.31 L 9.2 13.039 L 7.927 13.833 L 9.343 16.104 L 10.616 15.31 Z M 9.174 13.001 C 8.664 12.284 8.349 11.795 8.154 11.344 C 7.97 10.919 7.885 10.507 7.885 9.943 L 6.385 9.943 C 6.385 10.689 6.503 11.306 6.778 11.94 C 7.042 12.55 7.441 13.152 7.952 13.871 L 9.174 13.001 Z M 7.885 9.944 C 7.886 9.111 8.13 8.3 8.583 7.613 L 7.331 6.787 C 6.715 7.72 6.386 8.819 6.385 9.942 L 7.885 9.944 Z M 8.583 7.613 C 9.04 6.92 9.685 6.385 10.435 6.071 L 9.855 4.687 C 8.827 5.118 7.95 5.849 7.331 6.787 L 8.583 7.613 Z M 10.436 6.07 C 10.936 5.859 11.471 5.751 12.011 5.75 L 12.009 4.25 C 11.269 4.251 10.537 4.4 9.854 4.688 L 10.436 6.07 Z" fill="#000000"/>
  <g id="SVGRepo_bgCarrier" stroke-width="0" transform="matrix(0.356798, 0, 0, 0.356798, 7.899339, 5.866386)" style=""/>
  <g id="SVGRepo_tracerCarrier" stroke-linecap="round" stroke-linejoin="round" transform="matrix(0.356798, 0, 0, 0.356798, 7.899339, 5.866386)" style=""/>
  <circle cx="11.667" cy="9.536" r="1.368" style="stroke: rgb(0, 0, 0); stroke-width: 0.5px; pointer-events: none; visibility: hidden;"/>
  <g id="group-1" stroke-width="0" transform="matrix(1, 0, 0, 1, 8.823261, 1.810124)"/>
  <g id="group-2" stroke-linecap="round" stroke-linejoin="round" transform="matrix(1, 0, 0, 1, 8.823261, 1.810124)"/>
  <g data-name="Layer 2" transform="matrix(0.253121, 0, 0, 0.253121, 8.997291, 6.644695)" style="">
    <g data-name="menu-arrow-circle">
      <rect width="24" height="24" transform="rotate(180 12 12)" opacity="0" style="fill: rgb(0, 0, 0);"/>
      <path d="M12 2a10 10 0 1 0 10 10A10 10 0 0 0 12 2zm0 18a8 8 0 1 1 8-8 8 8 0 0 1-8 8z" style="fill: rgb(0, 0, 0);"/>
      <path d="M12 6a3.5 3.5 0 0 0-3.5 3.5 1 1 0 0 0 2 0A1.5 1.5 0 1 1 12 11a1 1 0 0 0-1 1v2a1 1 0 0 0 2 0v-1.16A3.49 3.49 0 0 0 12 6z" style="fill: rgb(0, 0, 0);"/>
      <circle cx="12" cy="17" r="1" style="fill: rgb(0, 0, 0);"/>
    </g>
  </g>
</svg>