<?xml version="1.0" encoding="utf-8"?>
<svg width="800px" height="800px" viewBox="0 0 24 24" fill="none" xmlns="http://www.w3.org/2000/svg" xmlns:bx="https://boxy-svg.com">
  <path d="M -12.094 -17.58 L -8.414 -15.088 L -7.505 -9.488 L -10.052 -4.997 L -14.136 -4.997 L -16.683 -9.488 L -15.774 -15.088 Z" bx:shape="n-gon -12.094 -10.961 4.707 6.619 7 0 1@2421aead" style="fill: rgb(186, 218, 85); visibility: hidden; transform-box: fill-box; transform-origin: 50% 50%;" transform="matrix(-1, 0, 0, -1, 24.188, 22.576999)"/>
  <g transform="matrix(1, 0, 0, 1, 0.318673, 0)">
    <path d="M -11.843 -18.207 L -7.06 -10.397 L -16.627 -10.397 L -11.843 -18.207 Z" bx:shape="triangle -16.627 -18.207 9.567 7.81 0.5 0 1@12c9d883" style="transform-box: fill-box; transform-origin: 50% 50%; fill: rgb(76, 184, 80);" transform="matrix(-1, 0, 0, -1, 23.687, 28.604001)"/>
    <circle cx="11.732" cy="10.632" r="1.244" style="fill: rgb(76, 184, 80);" transform="matrix(4.083529, 0, 0, 2.56937, -36.351467, -18.402891)"/>
  </g>
  <path d="M 12.019 4.25 C 11.605 4.25 11.269 4.586 11.269 5 C 11.269 5.414 11.605 5.75 12.019 5.75 L 12.019 4.25 Z M 13.884 5.376 L 14.175 4.684 L 14.174 4.684 L 13.884 5.376 Z M 16.072 7.2 L 15.446 7.613 L 16.072 7.2 Z M 16.894 9.94 L 17.644 9.94 L 17.644 9.939 L 16.894 9.94 Z M 15.466 13.433 L 14.855 12.998 C 14.846 13.01 14.838 13.023 14.83 13.036 L 15.466 13.433 Z M 14.05 15.7 L 13.414 15.303 L 13.411 15.307 L 14.05 15.7 Z M 12.019 19 L 11.381 19.394 C 11.517 19.615 11.759 19.75 12.019 19.75 C 12.28 19.75 12.521 19.615 12.658 19.393 L 12.019 19 Z M 9.988 15.707 L 10.627 15.313 L 10.625 15.31 L 9.988 15.707 Z M 8.572 13.436 L 9.209 13.039 C 9.201 13.026 9.192 13.014 9.183 13.001 L 8.572 13.436 Z M 7.144 9.943 L 6.394 9.942 L 6.394 9.943 L 7.144 9.943 Z M 7.966 7.2 L 8.592 7.613 L 7.966 7.2 Z M 10.154 5.379 L 10.444 6.071 L 10.445 6.07 L 10.154 5.379 Z M 12.02 5.75 C 12.434 5.749 12.77 5.413 12.769 4.999 C 12.768 4.585 12.432 4.249 12.018 4.25 L 12.02 5.75 Z M 12.019 5.75 C 12.559 5.75 13.094 5.858 13.594 6.068 L 14.174 4.684 C 13.491 4.398 12.759 4.25 12.019 4.25 L 12.019 5.75 Z M 13.594 6.068 C 14.344 6.382 14.989 6.919 15.446 7.613 L 16.698 6.787 C 16.08 5.849 15.203 5.116 14.175 4.684 L 13.594 6.068 Z M 15.446 7.613 C 15.899 8.299 16.143 9.11 16.144 9.941 L 17.644 9.939 C 17.642 8.817 17.314 7.719 16.698 6.787 L 15.446 7.613 Z M 16.144 9.94 C 16.144 10.504 16.059 10.917 15.875 11.343 C 15.68 11.793 15.365 12.282 14.855 12.998 L 16.076 13.868 C 16.588 13.151 16.987 12.548 17.251 11.938 C 17.526 11.304 17.644 10.686 17.644 9.94 L 16.144 9.94 Z M 14.83 13.036 L 13.414 15.303 L 14.686 16.097 L 16.102 13.83 L 14.83 13.036 Z M 13.411 15.307 L 11.38 18.607 L 12.658 19.393 L 14.689 16.093 L 13.411 15.307 Z M 12.657 18.606 L 10.626 15.313 L 9.35 16.101 L 11.381 19.394 L 12.657 18.606 Z M 10.625 15.31 L 9.209 13.039 L 7.936 13.833 L 9.352 16.104 L 10.625 15.31 Z M 9.183 13.001 C 8.673 12.284 8.358 11.795 8.163 11.344 C 7.979 10.919 7.894 10.507 7.894 9.943 L 6.394 9.943 C 6.394 10.689 6.512 11.306 6.787 11.94 C 7.051 12.55 7.45 13.152 7.961 13.871 L 9.183 13.001 Z M 7.894 9.944 C 7.895 9.111 8.139 8.3 8.592 7.613 L 7.34 6.787 C 6.724 7.72 6.395 8.819 6.394 9.942 L 7.894 9.944 Z M 8.592 7.613 C 9.049 6.92 9.694 6.385 10.444 6.071 L 9.864 4.687 C 8.836 5.118 7.959 5.849 7.34 6.787 L 8.592 7.613 Z M 10.445 6.07 C 10.945 5.859 11.48 5.751 12.02 5.75 L 12.018 4.25 C 11.278 4.251 10.546 4.4 9.863 4.688 L 10.445 6.07 Z" fill="#000000"/>
  <g id="SVGRepo_bgCarrier" stroke-width="0" transform="matrix(0.356798, 0, 0, 0.356798, 7.908172, 5.866386)" style=""/>
  <g id="SVGRepo_tracerCarrier" stroke-linecap="round" stroke-linejoin="round" transform="matrix(0.356798, 0, 0, 0.356798, 7.908172, 5.866386)" style=""/>
  <circle cx="11.667" cy="9.536" r="1.368" style="stroke: rgb(0, 0, 0); stroke-width: 0.5px; pointer-events: none; visibility: hidden;"/>
  <g id="group-1" stroke-width="0" transform="matrix(1, 0, 0, 1, 8.832094, 1.810124)"/>
  <g id="group-2" stroke-linecap="round" stroke-linejoin="round" transform="matrix(1, 0, 0, 1, 8.832094, 1.810124)"/>
  <g id="Layer_1" transform="matrix(1, 0, 0, 1, 10.46909, -1.102913)">
    <g style="" transform="matrix(0.118384, 0, 0, 0.118384, -1.97693, 6.645611)">
      <path d="M16.4,19.4c-1.3,0-2.3,1-2.3,2.3v4.6c0,1.3,1,2.3,2.3,2.3h5.7c1.3,0,2.3-1,2.3-2.3v-4.6c0-1.3-1-2.3-2.3-2.3H16.4z    M20.5,24.6h-2.3v-1.2h2.3V24.6z" style="fill: rgb(0, 0, 0);"/>
      <path d="M56.8,47.5C56.8,47.5,56.8,47.5,56.8,47.5c-0.1,0-0.1-0.1-0.1-0.1c-2.6-1.4-5-3-7.2-5.1c-2-2-3.5-4.2-4.8-6.7   c-2.9-5.1-7.1-9.1-12.4-11.6c0-0.7,0-1.4,0-2.2c0-1.6,0-3.2,0-4.8c0,0,0-0.1,0-0.1c0,0,0,0,0-0.1c0-0.6-0.4-1.1-0.8-1.4   c-0.1-0.1-0.1-0.1-0.2-0.2c-3.7-2.6-7.4-5.2-11-7.7c-0.5-0.4-1.5-0.4-2,0C14.6,10.4,11,13.2,7.3,16c0,0-0.1,0.1-0.1,0.1   c-0.5,0.3-0.9,0.8-0.9,1.6c0,11.2,0,22.4,0,33.6c0,1.6,0,3.2,0,4.8c0,2.6,4,2.6,4,0c0-1.2,0-2.5,0-3.7h18c0,1.2,0,2.5,0,3.7   c0,2.6,4,2.6,4,0c0-6,0-11.9,0-17.9c0.1,0.1,0.2,0.2,0.3,0.4c0.2,0.3,0.2,0.3,0.6,0.8c0.3,0.4,0.6,0.9,0.9,1.4   c1.6,2.5,3.2,5.1,5,7.5c2,2.6,4.1,5.2,6.8,7.1c2.9,2.1,6.2,3,9.7,3.1c0.9,0,1.4-0.4,1.7-1c0.2-0.3,0.3-0.6,0.3-1c0-2.1,0-4.2,0-6.3   c0-0.3,0-0.6,0-0.9c0,0,0,0,0,0C57.7,48.6,57.5,48,56.8,47.5z M10.3,35.7h18c0,1.4,0,2.9,0,4.3h-18C10.3,38.6,10.3,37.2,10.3,35.7z    M28.3,18.1c0,4.5,0,9.1,0,13.6h-18c0-3.1,0-6.2,0-9.2c0-1.3,0-2.5,0-3.8c3-2.3,6-4.6,9-6.8C22.3,13.9,25.3,16,28.3,18.1z M10.3,44   h18c0,1.4,0,2.9,0,4.3h-18C10.3,46.9,10.3,45.5,10.3,44z M41.6,44.8c-1.6-2.2-3-4.5-4.5-6.7c-1.4-2.1-3-3.7-4.9-5.3   c0-1.4,0-2.8,0-4.1c1.5,0.8,2.9,1.8,4.1,2.9c2.4,2.2,3.9,4.7,5.5,7.5c2.8,4.9,6.9,8.6,11.7,11.4c0,1.3,0,2.5,0,3.8   c-2.3-0.4-4.3-1.2-6.1-2.7C45.2,49.6,43.3,47.2,41.6,44.8z" style="fill: rgb(0, 0, 0);"/>
    </g>
  </g>
</svg>