<?xml version="1.0" encoding="utf-8"?>
<svg width="800px" height="800px" viewBox="0 0 24 24" fill="none" xmlns="http://www.w3.org/2000/svg" xmlns:bx="https://boxy-svg.com">
  <path d="M -12.638 -17.58 L -8.958 -15.088 L -8.049 -9.488 L -10.596 -4.997 L -14.68 -4.997 L -17.227 -9.488 L -16.318 -15.088 Z" bx:shape="n-gon -12.638 -10.961 4.707 6.619 7 0 1@221f6b35" style="fill: rgb(186, 218, 85); visibility: hidden; transform-box: fill-box; transform-origin: 50% 50%;" transform="matrix(-1, 0, 0, -1, 25.275999, 22.576999)"/>
  <g transform="matrix(1, 0, 0, 1, 0.862579, 0)">
    <path d="M -11.843 -18.207 L -7.06 -10.397 L -16.627 -10.397 L -11.843 -18.207 Z" bx:shape="triangle -16.627 -18.207 9.567 7.81 0.5 0 1@12c9d883" style="transform-box: fill-box; transform-origin: 50% 50%; fill: rgb(76, 184, 80);" transform="matrix(-1, 0, 0, -1, 23.687, 28.604001)"/>
    <circle cx="11.732" cy="10.632" r="1.244" style="fill: rgb(76, 184, 80);" transform="matrix(4.083529, 0, 0, 2.56937, -36.351467, -18.402891)"/>
  </g>
  <path d="M 12.563 4.25 C 12.149 4.25 11.813 4.586 11.813 5 C 11.813 5.414 12.149 5.75 12.563 5.75 L 12.563 4.25 Z M 14.428 5.376 L 14.719 4.684 L 14.718 4.684 L 14.428 5.376 Z M 16.616 7.2 L 15.99 7.613 L 16.616 7.2 Z M 17.438 9.94 L 18.188 9.94 L 18.188 9.939 L 17.438 9.94 Z M 16.01 13.433 L 15.399 12.998 C 15.39 13.01 15.382 13.023 15.374 13.036 L 16.01 13.433 Z M 14.594 15.7 L 13.958 15.303 L 13.955 15.307 L 14.594 15.7 Z M 12.563 19 L 11.925 19.394 C 12.061 19.615 12.303 19.75 12.563 19.75 C 12.824 19.75 13.065 19.615 13.202 19.393 L 12.563 19 Z M 10.532 15.707 L 11.171 15.313 L 11.169 15.31 L 10.532 15.707 Z M 9.116 13.436 L 9.753 13.039 C 9.745 13.026 9.736 13.014 9.727 13.001 L 9.116 13.436 Z M 7.688 9.943 L 6.938 9.942 L 6.938 9.943 L 7.688 9.943 Z M 8.51 7.2 L 9.136 7.613 L 8.51 7.2 Z M 10.698 5.379 L 10.988 6.071 L 10.989 6.07 L 10.698 5.379 Z M 12.564 5.75 C 12.978 5.749 13.314 5.413 13.313 4.999 C 13.312 4.585 12.976 4.249 12.562 4.25 L 12.564 5.75 Z M 12.563 5.75 C 13.103 5.75 13.638 5.858 14.138 6.068 L 14.718 4.684 C 14.035 4.398 13.303 4.25 12.563 4.25 L 12.563 5.75 Z M 14.138 6.068 C 14.888 6.382 15.533 6.919 15.99 7.613 L 17.242 6.787 C 16.624 5.849 15.747 5.116 14.719 4.684 L 14.138 6.068 Z M 15.99 7.613 C 16.443 8.299 16.687 9.11 16.688 9.941 L 18.188 9.939 C 18.186 8.817 17.858 7.719 17.242 6.787 L 15.99 7.613 Z M 16.688 9.94 C 16.688 10.504 16.603 10.917 16.419 11.343 C 16.224 11.793 15.909 12.282 15.399 12.998 L 16.62 13.868 C 17.132 13.151 17.531 12.548 17.795 11.938 C 18.07 11.304 18.188 10.686 18.188 9.94 L 16.688 9.94 Z M 15.374 13.036 L 13.958 15.303 L 15.23 16.097 L 16.646 13.83 L 15.374 13.036 Z M 13.955 15.307 L 11.924 18.607 L 13.202 19.393 L 15.233 16.093 L 13.955 15.307 Z M 13.201 18.606 L 11.17 15.313 L 9.894 16.101 L 11.925 19.394 L 13.201 18.606 Z M 11.169 15.31 L 9.753 13.039 L 8.48 13.833 L 9.896 16.104 L 11.169 15.31 Z M 9.727 13.001 C 9.217 12.284 8.902 11.795 8.707 11.344 C 8.523 10.919 8.438 10.507 8.438 9.943 L 6.938 9.943 C 6.938 10.689 7.056 11.306 7.331 11.94 C 7.595 12.55 7.994 13.152 8.505 13.871 L 9.727 13.001 Z M 8.438 9.944 C 8.439 9.111 8.683 8.3 9.136 7.613 L 7.884 6.787 C 7.268 7.72 6.939 8.819 6.938 9.942 L 8.438 9.944 Z M 9.136 7.613 C 9.593 6.92 10.238 6.385 10.988 6.071 L 10.408 4.687 C 9.38 5.118 8.503 5.849 7.884 6.787 L 9.136 7.613 Z M 10.989 6.07 C 11.489 5.859 12.024 5.751 12.564 5.75 L 12.562 4.25 C 11.822 4.251 11.09 4.4 10.407 4.688 L 10.989 6.07 Z" fill="#000000"/>
  <g id="SVGRepo_bgCarrier" stroke-width="0" transform="matrix(0.356798, 0, 0, 0.356798, 8.452078, 5.866386)" style=""/>
  <g id="SVGRepo_tracerCarrier" stroke-linecap="round" stroke-linejoin="round" transform="matrix(0.356798, 0, 0, 0.356798, 8.452078, 5.866386)" style=""/>
  <circle cx="11.667" cy="9.536" r="1.368" style="stroke: rgb(0, 0, 0); stroke-width: 0.5px; pointer-events: none; visibility: hidden;"/>
  <g id="group-1" stroke-width="0" transform="matrix(1, 0, 0, 1, 9.376, 1.810124)"/>
  <g id="group-2" stroke-linecap="round" stroke-linejoin="round" transform="matrix(1, 0, 0, 1, 9.376, 1.810124)"/>
  <g id="Capa_1" transform="matrix(1, 0, 0, 1, 0.862579, 0)">
    <path d="M 13.622 8.422 C 13.561 8.184 13.363 7.989 13.105 7.886 L 13.105 7.696 C 13.105 7.495 12.967 7.327 12.781 7.279 C 12.781 7.274 12.782 7.27 12.782 7.265 C 12.782 6.732 12.347 6.297 11.813 6.297 C 11.279 6.297 10.845 6.732 10.845 7.265 L 10.845 8.36 C 10.72 8.405 10.629 8.525 10.629 8.665 L 10.629 12.97 L 10.522 12.97 C 10.462 12.97 10.414 13.018 10.414 13.078 C 10.414 13.137 10.462 13.186 10.522 13.186 L 11.382 13.186 C 11.442 13.186 11.49 13.137 11.49 13.078 C 11.49 13.018 11.442 12.97 11.382 12.97 L 11.275 12.97 L 11.275 8.665 C 11.275 8.525 11.186 8.405 11.06 8.36 L 11.06 7.265 C 11.06 6.85 11.398 6.512 11.813 6.512 C 12.229 6.512 12.567 6.85 12.567 7.265 C 12.567 7.27 12.567 7.274 12.568 7.279 C 12.381 7.327 12.244 7.495 12.244 7.696 L 12.244 7.886 C 11.985 7.989 11.789 8.184 11.727 8.422 C 11.718 8.455 11.725 8.489 11.745 8.516 C 11.766 8.542 11.798 8.557 11.831 8.557 L 12.244 8.557 C 12.244 8.795 12.437 8.988 12.675 8.988 C 12.912 8.988 13.105 8.795 13.105 8.557 L 13.518 8.557 C 13.552 8.557 13.583 8.542 13.604 8.516 C 13.624 8.489 13.631 8.455 13.622 8.422 Z M 10.953 8.557 C 11.011 8.557 11.06 8.605 11.06 8.665 L 11.06 12.109 L 10.845 12.109 L 10.845 8.665 C 10.845 8.605 10.893 8.557 10.953 8.557 Z M 10.845 12.97 L 10.845 12.325 L 11.06 12.325 L 11.06 12.97 L 10.845 12.97 Z M 12.46 7.696 C 12.46 7.577 12.555 7.481 12.675 7.481 C 12.793 7.481 12.889 7.577 12.889 7.696 L 12.889 7.823 C 12.82 7.81 12.748 7.804 12.675 7.804 C 12.601 7.804 12.529 7.81 12.46 7.823 L 12.46 7.696 Z M 12.675 8.772 C 12.555 8.772 12.46 8.675 12.46 8.557 L 12.889 8.557 C 12.889 8.675 12.793 8.772 12.675 8.772 Z M 11.994 8.342 C 12.117 8.149 12.379 8.019 12.675 8.019 C 12.97 8.019 13.232 8.149 13.354 8.342 L 11.994 8.342 Z" style="stroke-width: 0.047; fill: rgb(0, 0, 0);"/>
  </g>
</svg>