<?xml version="1.0" encoding="utf-8"?>
<svg width="800px" height="800px" viewBox="0 0 24 24" fill="none" xmlns="http://www.w3.org/2000/svg" xmlns:bx="https://boxy-svg.com">
  <path d="M -12.587 -17.58 L -8.907 -15.088 L -7.998 -9.488 L -10.545 -4.997 L -14.629 -4.997 L -17.176 -9.488 L -16.267 -15.088 Z" bx:shape="n-gon -12.587 -10.961 4.707 6.619 7 0 1@c6fbf524" style="fill: rgb(186, 218, 85); visibility: hidden; transform-box: fill-box; transform-origin: 50% 50%;" transform="matrix(-1, 0, 0, -1, 25.174, 22.576999)"/>
  <g transform="matrix(1, 0, 0, 1, 0.811839, 0)">
    <path d="M -11.843 -18.207 L -7.06 -10.397 L -16.627 -10.397 L -11.843 -18.207 Z" bx:shape="triangle -16.627 -18.207 9.567 7.81 0.5 0 1@12c9d883" style="transform-box: fill-box; transform-origin: 50% 50%; fill: rgb(76, 184, 80);" transform="matrix(-1, 0, 0, -1, 23.687, 28.604001)"/>
    <circle cx="11.732" cy="10.632" r="1.244" style="fill: rgb(76, 184, 80);" transform="matrix(4.083529, 0, 0, 2.56937, -36.351467, -18.402891)"/>
  </g>
  <path d="M 12.512 4.25 C 12.098 4.25 11.762 4.586 11.762 5 C 11.762 5.414 12.098 5.75 12.512 5.75 L 12.512 4.25 Z M 14.377 5.376 L 14.668 4.684 L 14.667 4.684 L 14.377 5.376 Z M 16.565 7.2 L 15.939 7.613 L 16.565 7.2 Z M 17.387 9.94 L 18.137 9.94 L 18.137 9.939 L 17.387 9.94 Z M 15.959 13.433 L 15.348 12.998 C 15.339 13.01 15.331 13.023 15.323 13.036 L 15.959 13.433 Z M 14.543 15.7 L 13.907 15.303 L 13.904 15.307 L 14.543 15.7 Z M 12.512 19 L 11.874 19.394 C 12.01 19.615 12.252 19.75 12.512 19.75 C 12.773 19.75 13.014 19.615 13.151 19.393 L 12.512 19 Z M 10.481 15.707 L 11.12 15.313 L 11.118 15.31 L 10.481 15.707 Z M 9.065 13.436 L 9.702 13.039 C 9.694 13.026 9.685 13.014 9.676 13.001 L 9.065 13.436 Z M 7.637 9.943 L 6.887 9.942 L 6.887 9.943 L 7.637 9.943 Z M 8.459 7.2 L 9.085 7.613 L 8.459 7.2 Z M 10.647 5.379 L 10.937 6.071 L 10.938 6.07 L 10.647 5.379 Z M 12.513 5.75 C 12.927 5.749 13.263 5.413 13.262 4.999 C 13.261 4.585 12.925 4.249 12.511 4.25 L 12.513 5.75 Z M 12.512 5.75 C 13.052 5.75 13.587 5.858 14.087 6.068 L 14.667 4.684 C 13.984 4.398 13.252 4.25 12.512 4.25 L 12.512 5.75 Z M 14.087 6.068 C 14.837 6.382 15.482 6.919 15.939 7.613 L 17.191 6.787 C 16.573 5.849 15.696 5.116 14.668 4.684 L 14.087 6.068 Z M 15.939 7.613 C 16.392 8.299 16.636 9.11 16.637 9.941 L 18.137 9.939 C 18.135 8.817 17.807 7.719 17.191 6.787 L 15.939 7.613 Z M 16.637 9.94 C 16.637 10.504 16.552 10.917 16.368 11.343 C 16.173 11.793 15.858 12.282 15.348 12.998 L 16.569 13.868 C 17.081 13.151 17.48 12.548 17.744 11.938 C 18.019 11.304 18.137 10.686 18.137 9.94 L 16.637 9.94 Z M 15.323 13.036 L 13.907 15.303 L 15.179 16.097 L 16.595 13.83 L 15.323 13.036 Z M 13.904 15.307 L 11.873 18.607 L 13.151 19.393 L 15.182 16.093 L 13.904 15.307 Z M 13.15 18.606 L 11.119 15.313 L 9.843 16.101 L 11.874 19.394 L 13.15 18.606 Z M 11.118 15.31 L 9.702 13.039 L 8.429 13.833 L 9.845 16.104 L 11.118 15.31 Z M 9.676 13.001 C 9.166 12.284 8.851 11.795 8.656 11.344 C 8.472 10.919 8.387 10.507 8.387 9.943 L 6.887 9.943 C 6.887 10.689 7.005 11.306 7.28 11.94 C 7.544 12.55 7.943 13.152 8.454 13.871 L 9.676 13.001 Z M 8.387 9.944 C 8.388 9.111 8.632 8.3 9.085 7.613 L 7.833 6.787 C 7.217 7.72 6.888 8.819 6.887 9.942 L 8.387 9.944 Z M 9.085 7.613 C 9.542 6.92 10.187 6.385 10.937 6.071 L 10.357 4.687 C 9.329 5.118 8.452 5.849 7.833 6.787 L 9.085 7.613 Z M 10.938 6.07 C 11.438 5.859 11.973 5.751 12.513 5.75 L 12.511 4.25 C 11.771 4.251 11.039 4.4 10.356 4.688 L 10.938 6.07 Z" fill="#000000"/>
  <g id="SVGRepo_bgCarrier" stroke-width="0" transform="matrix(0.356798, 0, 0, 0.356798, 8.401339, 5.866386)" style=""/>
  <g id="SVGRepo_tracerCarrier" stroke-linecap="round" stroke-linejoin="round" transform="matrix(0.356798, 0, 0, 0.356798, 8.401339, 5.866386)" style=""/>
  <circle cx="11.667" cy="9.536" r="1.368" style="stroke: rgb(0, 0, 0); stroke-width: 0.5px; pointer-events: none; visibility: hidden;"/>
  <g id="group-1" stroke-width="0" transform="matrix(1, 0, 0, 1, 9.32526, 1.810124)"/>
  <g id="group-2" stroke-linecap="round" stroke-linejoin="round" transform="matrix(1, 0, 0, 1, 9.32526, 1.810124)"/>
  <g id="Layer_1" transform="matrix(1, 0, 0, 1, 0.811839, 0)">
    <g style="" transform="matrix(0.03739, 0, 0, 0.03739, 16.150229, 3.518825)">
      <g style="" transform="matrix(0.302256, 0, 0, 0.302256, -196.026855, 90.204605)">
        <g>
          <path d="M485.265,25.6H435.2v-7.398C435.2,8.154,427.051,0,416.998,0h-31.863c-10.053,0-18.202,8.154-18.202,18.202v7.505 C180.344,30.162,30.16,180.346,25.705,366.935h-7.501c-10.055,0-18.202,8.147-18.202,18.202V417 c0,10.055,8.147,18.202,18.202,18.202h7.398v50.065c0,10.055,8.147,18.202,18.202,18.202H161 c10.048,0,18.202-8.149,18.202-18.202v-50.065h7.398c10.048,0,18.202-8.149,18.202-18.202v-31.863 c0-10.053-8.154-18.202-18.202-18.202h-15.744c4.352-106.402,89.675-191.725,196.077-196.077v15.74 c0,10.055,8.147,18.202,18.202,18.202h31.863c10.055,0,18.202-8.147,18.202-18.202V179.2h50.065 c10.055,0,18.202-8.147,18.202-18.202V43.802C503.467,33.754,495.318,25.6,485.265,25.6z M162.135,485.267 c0,0.625-0.51,1.135-1.135,1.135H43.803c-0.629,0-1.135-0.506-1.135-1.135v-50.065h119.467V485.267z M187.735,385.137V417 c0,0.625-0.51,1.135-1.135,1.135h-7.398h-153.6h-7.398c-0.629,0-1.135-0.506-1.135-1.135v-31.863 c0-0.629,0.506-1.135,1.135-1.135H25.6h145.067H186.6C187.225,384.002,187.735,384.512,187.735,385.137z M247.467,194.189 v-14.987c0-4.713-3.82-8.533-8.533-8.533h-17.067v-25.6c0-4.713-3.82-8.533-8.533-8.533h-25.6c-4.713,0-8.533,3.82-8.533,8.533 s3.82,8.533,8.533,8.533H204.8v25.6c0,4.713,3.82,8.533,8.533,8.533H230.4v17.067c0,0.847,0.128,1.663,0.357,2.435 c-45.246,38.946-74.587,95.844-76.997,159.698l-110.987,0c4.448-177.163,146.997-319.712,324.16-324.16v110.987 C322.509,155.438,281.457,170.158,247.467,194.189z M418.133,186.598c0,0.629-0.506,1.135-1.135,1.135h-31.863 c-0.629,0-1.135-0.506-1.135-1.135v-15.93V25.602v-7.4c0-0.625,0.51-1.135,1.135-1.135h31.863c0.625,0,1.135,0.51,1.135,1.135 V25.6v153.6V186.598z M486.4,160.998c0,0.629-0.506,1.135-1.135,1.135H435.2V42.667h50.065c0.625,0,1.135,0.51,1.135,1.135 V160.998z" style="fill: rgb(0, 0, 0);"/>
          <path d="M288.691,234.186c-3.38-5.05-10.805-5.049-14.184,0.001l-25.054,37.444c-15.887,25.487-15.9,48.4,1.058,65.359 c17.174,17.174,45.011,17.174,62.184,0c17.004-17.014,16.989-43.305,0.884-65.609L288.691,234.186z M300.627,324.924 c-10.507,10.507-27.538,10.507-38.046-0.002c-10.692-10.692-10.684-24.947,1.208-44.032l17.812-26.615l17.971,26.849 C311.25,297.306,311.259,314.285,300.627,324.924z" style="fill: rgb(0, 0, 0);"/>
          <path d="M382.558,345.119c-3.38-5.05-10.805-5.049-14.184,0.001l-25.054,37.444c-15.886,25.487-15.9,48.401,1.058,65.359 c17.174,17.174,45.011,17.174,62.184,0c17.004-17.014,16.989-43.305,0.884-65.609L382.558,345.119z M394.493,435.857 c-10.507,10.507-27.538,10.507-38.046-0.002c-10.692-10.692-10.684-24.947,1.208-44.032l17.812-26.615l17.971,26.849 C405.116,408.24,405.126,425.218,394.493,435.857z" style="fill: rgb(0, 0, 0);"/>
        </g>
      </g>
    </g>
  </g>
</svg>