<?xml version="1.0" encoding="utf-8"?>
<svg width="800px" height="800px" viewBox="0 0 24 24" fill="none" xmlns="http://www.w3.org/2000/svg" xmlns:bx="https://boxy-svg.com">
  <path d="M -12.637 -17.58 L -8.957 -15.088 L -8.048 -9.488 L -10.595 -4.997 L -14.679 -4.997 L -17.226 -9.488 L -16.317 -15.088 Z" bx:shape="n-gon -12.637 -10.961 4.707 6.619 7 0 1@beb55312" style="fill: rgb(186, 218, 85); visibility: hidden; transform-box: fill-box; transform-origin: 50% 50%;" transform="matrix(-1, 0, 0, -1, 25.274, 22.576999)"/>
  <g transform="matrix(1, 0, 0, 1, 0.862579, 0)">
    <path d="M -11.843 -18.207 L -7.06 -10.397 L -16.627 -10.397 L -11.843 -18.207 Z" bx:shape="triangle -16.627 -18.207 9.567 7.81 0.5 0 1@12c9d883" style="transform-box: fill-box; transform-origin: 50% 50%; fill: rgb(76, 184, 80);" transform="matrix(-1, 0, 0, -1, 23.687, 28.604001)"/>
    <circle cx="11.732" cy="10.632" r="1.244" style="fill: rgb(76, 184, 80);" transform="matrix(4.083529, 0, 0, 2.56937, -36.351467, -18.402891)"/>
  </g>
  <path d="M 12.562 4.25 C 12.148 4.25 11.812 4.586 11.812 5 C 11.812 5.414 12.148 5.75 12.562 5.75 L 12.562 4.25 Z M 14.427 5.376 L 14.718 4.684 L 14.717 4.684 L 14.427 5.376 Z M 16.615 7.2 L 15.989 7.613 L 16.615 7.2 Z M 17.437 9.94 L 18.187 9.94 L 18.187 9.939 L 17.437 9.94 Z M 16.009 13.433 L 15.398 12.998 C 15.389 13.01 15.381 13.023 15.373 13.036 L 16.009 13.433 Z M 14.593 15.7 L 13.957 15.303 L 13.954 15.307 L 14.593 15.7 Z M 12.562 19 L 11.924 19.394 C 12.06 19.615 12.302 19.75 12.562 19.75 C 12.823 19.75 13.064 19.615 13.201 19.393 L 12.562 19 Z M 10.531 15.707 L 11.17 15.313 L 11.168 15.31 L 10.531 15.707 Z M 9.115 13.436 L 9.752 13.039 C 9.744 13.026 9.735 13.014 9.726 13.001 L 9.115 13.436 Z M 7.687 9.943 L 6.937 9.942 L 6.937 9.943 L 7.687 9.943 Z M 8.509 7.2 L 9.135 7.613 L 8.509 7.2 Z M 10.697 5.379 L 10.987 6.071 L 10.988 6.07 L 10.697 5.379 Z M 12.563 5.75 C 12.977 5.749 13.313 5.413 13.312 4.999 C 13.311 4.585 12.975 4.249 12.561 4.25 L 12.563 5.75 Z M 12.562 5.75 C 13.102 5.75 13.637 5.858 14.137 6.068 L 14.717 4.684 C 14.034 4.398 13.302 4.25 12.562 4.25 L 12.562 5.75 Z M 14.137 6.068 C 14.887 6.382 15.532 6.919 15.989 7.613 L 17.241 6.787 C 16.623 5.849 15.746 5.116 14.718 4.684 L 14.137 6.068 Z M 15.989 7.613 C 16.442 8.299 16.686 9.11 16.687 9.941 L 18.187 9.939 C 18.185 8.817 17.857 7.719 17.241 6.787 L 15.989 7.613 Z M 16.687 9.94 C 16.687 10.504 16.602 10.917 16.418 11.343 C 16.223 11.793 15.908 12.282 15.398 12.998 L 16.619 13.868 C 17.131 13.151 17.53 12.548 17.794 11.938 C 18.069 11.304 18.187 10.686 18.187 9.94 L 16.687 9.94 Z M 15.373 13.036 L 13.957 15.303 L 15.229 16.097 L 16.645 13.83 L 15.373 13.036 Z M 13.954 15.307 L 11.923 18.607 L 13.201 19.393 L 15.232 16.093 L 13.954 15.307 Z M 13.2 18.606 L 11.169 15.313 L 9.893 16.101 L 11.924 19.394 L 13.2 18.606 Z M 11.168 15.31 L 9.752 13.039 L 8.479 13.833 L 9.895 16.104 L 11.168 15.31 Z M 9.726 13.001 C 9.216 12.284 8.901 11.795 8.706 11.344 C 8.522 10.919 8.437 10.507 8.437 9.943 L 6.937 9.943 C 6.937 10.689 7.055 11.306 7.33 11.94 C 7.594 12.55 7.993 13.152 8.504 13.871 L 9.726 13.001 Z M 8.437 9.944 C 8.438 9.111 8.682 8.3 9.135 7.613 L 7.883 6.787 C 7.267 7.72 6.938 8.819 6.937 9.942 L 8.437 9.944 Z M 9.135 7.613 C 9.592 6.92 10.237 6.385 10.987 6.071 L 10.407 4.687 C 9.379 5.118 8.502 5.849 7.883 6.787 L 9.135 7.613 Z M 10.988 6.07 C 11.488 5.859 12.023 5.751 12.563 5.75 L 12.561 4.25 C 11.821 4.251 11.089 4.4 10.406 4.688 L 10.988 6.07 Z" fill="#000000"/>
  <g id="SVGRepo_bgCarrier" stroke-width="0" transform="matrix(0.356798, 0, 0, 0.356798, 8.452079, 5.866386)" style=""/>
  <g id="SVGRepo_tracerCarrier" stroke-linecap="round" stroke-linejoin="round" transform="matrix(0.356798, 0, 0, 0.356798, 8.452079, 5.866386)" style=""/>
  <circle cx="11.667" cy="9.536" r="1.368" style="stroke: rgb(0, 0, 0); stroke-width: 0.5px; pointer-events: none; visibility: hidden;"/>
  <g id="group-1" stroke-width="0" transform="matrix(1, 0, 0, 1, 9.376, 1.810124)"/>
  <g id="group-2" stroke-linecap="round" stroke-linejoin="round" transform="matrix(1, 0, 0, 1, 9.376, 1.810124)"/>
  <g id="Layer_1" transform="matrix(0.014063, 0, 0, 0.014063, 12.362919, 10.381379)" style="">
    <g style="" transform="matrix(0.812978, 0, 0, 0.812978, -187.222794, -248.748993)">
      <g>
        <path d="M401.155,271.835v-31.67h79.175v-60.701c0-10.186-8.288-18.474-18.474-18.474h-60.701v-31.67h79.175V68.619 c0-10.186-8.288-18.474-18.474-18.474H166.268v15.835h295.588c1.43,0,2.639,1.209,2.639,2.639v44.866H47.505V68.619 c0-1.43,1.209-2.639,2.639-2.639h89.732V50.144H50.144c-10.186,0-18.474,8.288-18.474,18.474v60.701h79.175v31.67H50.144 c-10.186,0-18.474,8.288-18.474,18.474v60.701h79.175v31.67H0v50.144c0,10.186,8.288,18.474,18.474,18.474h50.144v105.567H39.588 v15.835h116.124v-15.835H126.68V324.619H18.474c-1.43,0-2.639-1.209-2.639-2.639V287.67h480.33v34.309 c0,1.43-1.209,2.639-2.639,2.639H144.099v15.835H385.32v105.567h-29.031v15.835h116.124v-15.835h-29.031V340.454h50.144 c10.186,0,18.474-8.288,18.474-18.474v-50.144H401.155z M84.454,340.454h26.392v105.567H84.454V340.454z M337.814,129.32h47.505 v31.67h-47.505V129.32z M190.021,129.32h131.959v31.67H190.021V129.32z M126.68,129.32h47.505v31.67H126.68V129.32z M47.505,224.33v-44.866c0-1.43,1.209-2.639,2.639-2.639h411.711c1.43,0,2.639,1.209,2.639,2.639v44.866H47.505z M174.186,271.835 H126.68v-31.67h47.505V271.835z M321.979,271.835H190.021v-31.67h131.959V271.835z M385.32,271.835h-47.505v-31.67h47.505V271.835 z M427.546,446.021h-26.392V340.454h26.392V446.021z" style="fill: rgb(0, 0, 0);"/>
      </g>
    </g>
    <g style="" transform="matrix(0.812978, 0, 0, 0.812978, -187.222794, -248.748993)">
      <g>
        <rect x="65.979" y="81.814" width="26.392" height="15.835" style="fill: rgb(0, 0, 0);"/>
      </g>
    </g>
    <g style="" transform="matrix(0.812978, 0, 0, 0.812978, -187.222794, -248.748993)">
      <g>
        <rect x="65.979" y="192.66" width="26.392" height="15.835" style="fill: rgb(0, 0, 0);"/>
      </g>
    </g>
    <g style="" transform="matrix(0.812978, 0, 0, 0.812978, -187.222794, -248.748993)">
      <g>
        <rect x="419.629" y="81.814" width="26.392" height="15.835" style="fill: rgb(0, 0, 0);"/>
      </g>
    </g>
    <g style="" transform="matrix(0.812978, 0, 0, 0.812978, -187.222794, -248.748993)">
      <g>
        <rect x="419.629" y="192.66" width="26.392" height="15.835" style="fill: rgb(0, 0, 0);"/>
      </g>
    </g>
    <g style="" transform="matrix(0.812978, 0, 0, 0.812978, -187.222794, -248.748993)">
      <g>
        <rect x="139.876" y="192.66" width="232.247" height="15.835" style="fill: rgb(0, 0, 0);"/>
      </g>
    </g>
    <g style="" transform="matrix(0.812978, 0, 0, 0.812978, -187.222794, -248.748993)">
      <g>
        <rect x="139.876" y="81.814" width="232.247" height="15.835" style="fill: rgb(0, 0, 0);"/>
      </g>
    </g>
  </g>
</svg>