<?xml version="1.0" encoding="utf-8"?>
<svg width="800px" height="800px" viewBox="0 0 24 24" fill="none" xmlns="http://www.w3.org/2000/svg" xmlns:bx="https://boxy-svg.com">
  <path d="M -11.775 -17.58 L -8.095 -15.088 L -7.186 -9.488 L -9.733 -4.997 L -13.817 -4.997 L -16.364 -9.488 L -15.455 -15.088 Z" bx:shape="n-gon -11.775 -10.961 4.707 6.619 7 0 1@dcd17a86" style="fill: rgb(186, 218, 85); transform-box: fill-box; transform-origin: 50% 50%; visibility: hidden;" transform="matrix(-1, 0, 0, -1, 23.55, 22.576999)"/>
  <g>
    <path d="M -11.843 -18.207 L -7.06 -10.397 L -16.627 -10.397 L -11.843 -18.207 Z" bx:shape="triangle -16.627 -18.207 9.567 7.81 0.5 0 1@12c9d883" style="transform-box: fill-box; transform-origin: 50% 50%; fill: rgb(76, 184, 80);" transform="matrix(-1, 0, 0, -1, 23.687, 28.604001)"/>
    <circle cx="11.732" cy="10.632" r="1.244" style="fill: rgb(76, 184, 80);" transform="matrix(4.083529, 0, 0, 2.56937, -36.351467, -18.402891)"/>
  </g>
  <path d="M 11.7 4.25 C 11.286 4.25 10.95 4.586 10.95 5 C 10.95 5.414 11.286 5.75 11.7 5.75 L 11.7 4.25 Z M 13.565 5.376 L 13.856 4.684 L 13.855 4.684 L 13.565 5.376 Z M 15.753 7.2 L 15.127 7.613 L 15.127 7.613 L 15.753 7.2 Z M 16.575 9.94 L 17.325 9.94 L 17.325 9.939 L 16.575 9.94 Z M 15.147 13.433 L 14.536 12.998 C 14.527 13.01 14.519 13.023 14.511 13.036 L 15.147 13.433 Z M 13.731 15.7 L 13.095 15.303 L 13.092 15.307 L 13.731 15.7 Z M 11.7 19 L 11.062 19.394 C 11.198 19.615 11.44 19.75 11.7 19.75 C 11.961 19.75 12.202 19.615 12.339 19.393 L 11.7 19 Z M 9.669 15.707 L 10.308 15.313 L 10.306 15.31 L 9.669 15.707 Z M 8.253 13.436 L 8.89 13.039 C 8.882 13.026 8.873 13.014 8.864 13.001 L 8.253 13.436 Z M 6.825 9.943 L 6.075 9.942 L 6.075 9.943 L 6.825 9.943 Z M 7.647 7.2 L 8.273 7.613 L 8.273 7.613 L 7.647 7.2 Z M 9.835 5.379 L 10.125 6.071 L 10.126 6.07 L 9.835 5.379 Z M 11.701 5.75 C 12.115 5.749 12.451 5.413 12.45 4.999 C 12.449 4.585 12.113 4.249 11.699 4.25 L 11.701 5.75 Z M 11.7 5.75 C 12.24 5.75 12.775 5.858 13.275 6.068 L 13.855 4.684 C 13.172 4.398 12.44 4.25 11.7 4.25 L 11.7 5.75 Z M 13.275 6.068 C 14.025 6.382 14.67 6.919 15.127 7.613 L 16.379 6.787 C 15.761 5.849 14.884 5.116 13.856 4.684 L 13.275 6.068 Z M 15.127 7.613 C 15.58 8.299 15.824 9.11 15.825 9.941 L 17.325 9.939 C 17.323 8.817 16.995 7.719 16.379 6.787 L 15.127 7.613 Z M 15.825 9.94 C 15.825 10.504 15.74 10.917 15.556 11.343 C 15.361 11.793 15.046 12.282 14.536 12.998 L 15.757 13.868 C 16.269 13.151 16.668 12.548 16.932 11.938 C 17.207 11.304 17.325 10.686 17.325 9.94 L 15.825 9.94 Z M 14.511 13.036 L 13.095 15.303 L 14.367 16.097 L 15.783 13.83 L 14.511 13.036 Z M 13.092 15.307 L 11.061 18.607 L 12.339 19.393 L 14.37 16.093 L 13.092 15.307 Z M 12.338 18.606 L 10.307 15.313 L 9.031 16.101 L 11.062 19.394 L 12.338 18.606 Z M 10.306 15.31 L 8.89 13.039 L 7.617 13.833 L 9.033 16.104 L 10.306 15.31 Z M 8.864 13.001 C 8.354 12.284 8.039 11.795 7.844 11.344 C 7.66 10.919 7.575 10.507 7.575 9.943 L 6.075 9.943 C 6.075 10.689 6.193 11.306 6.468 11.94 C 6.732 12.55 7.131 13.152 7.642 13.871 L 8.864 13.001 Z M 7.575 9.944 C 7.576 9.111 7.82 8.3 8.273 7.613 L 7.021 6.787 C 6.405 7.72 6.076 8.819 6.075 9.942 L 7.575 9.944 Z M 8.273 7.613 C 8.73 6.92 9.375 6.385 10.125 6.071 L 9.545 4.687 C 8.517 5.118 7.64 5.849 7.021 6.787 L 8.273 7.613 Z M 10.126 6.07 C 10.626 5.859 11.161 5.751 11.701 5.75 L 11.699 4.25 C 10.959 4.251 10.227 4.4 9.544 4.688 L 10.126 6.07 Z" fill="#000000"/>
  <g id="SVGRepo_bgCarrier" stroke-width="0" transform="matrix(0.356798, 0, 0, 0.356798, 7.589499, 5.866386)" style=""/>
  <g id="SVGRepo_tracerCarrier" stroke-linecap="round" stroke-linejoin="round" transform="matrix(0.356798, 0, 0, 0.356798, 7.589499, 5.866386)" style=""/>
  <circle cx="11.667" cy="9.536" r="1.368" style="stroke: rgb(0, 0, 0); stroke-width: 0.5px; pointer-events: none; visibility: hidden;"/>
  <g id="group-1" stroke-width="0" transform="matrix(1, 0, 0, 1, 8.513421, 1.810124)"/>
  <g id="group-2" stroke-linecap="round" stroke-linejoin="round" transform="matrix(1, 0, 0, 1, 8.513421, 1.810124)"/>
  <g id="Layer_1" transform="matrix(0.340313, 0, 0, 0.340313, -3.802149, 4.699395)" style="">
    <g style="" transform="matrix(0.036668, 0, 0, 0.036668, 36.271755, 6.087388)">
      <g>
        <path d="M256,176.156c-17.146,0-31.094,13.948-31.094,31.094v210.097c0,17.146,13.948,31.094,31.094,31.094 c17.146,0,31.094-13.949,31.094-31.094V207.25C287.094,190.104,273.146,176.156,256,176.156z M270.134,417.347 c0,7.794-6.34,14.134-14.134,14.134s-14.134-6.341-14.134-14.134V207.25c0-7.794,6.34-14.134,14.134-14.134 s14.134,6.34,14.134,14.134V417.347z" style="fill: rgb(0, 0, 0);"/>
      </g>
    </g>
    <g style="" transform="matrix(0.036668, 0, 0, 0.036668, 36.271755, 6.087388)">
      <g>
        <path d="M207.935,416.51l-5.653-210.097c-0.458-16.967-14.099-30.258-31.055-30.258c-0.288,0-0.579,0.003-0.864,0.012 c-17.139,0.462-30.707,14.781-30.246,31.919l5.653,210.097c0.457,16.966,14.105,30.257,31.071,30.257 c0.282,0,0.565-0.003,0.848-0.011C194.828,447.967,208.396,433.648,207.935,416.51z M177.231,431.476l-0.391,0.005 c-7.708,0-13.91-6.041-14.118-13.754l-5.653-210.096c-0.209-7.79,5.96-14.3,13.755-14.51l0.401-0.006 c7.7,0,13.894,6.042,14.102,13.755l5.653,210.096C191.189,424.756,185.021,431.265,177.231,431.476z" style="fill: rgb(0, 0, 0);"/>
      </g>
    </g>
    <g style="" transform="matrix(0.036668, 0, 0, 0.036668, 36.271755, 6.087388)">
      <g>
        <path d="M341.634,176.169c-0.283-0.007-0.564-0.01-0.845-0.01c-16.966,0-30.614,13.29-31.071,30.257l-5.653,210.096 c-0.461,17.138,13.107,31.457,30.249,31.919c0.284,0.007,0.565,0.01,0.845,0.01c16.966,0,30.614-13.29,31.071-30.257 l5.653-210.096C372.344,190.95,358.776,176.631,341.634,176.169z M349.277,417.727c-0.208,7.712-6.41,13.754-14.118,13.754 l-0.391-0.005c-7.79-0.21-13.959-6.72-13.749-14.51l5.653-210.096c0.208-7.712,6.41-13.754,14.118-13.754l0.391,0.005 c7.79,0.21,13.958,6.72,13.749,14.51L349.277,417.727z" style="fill: rgb(0, 0, 0);"/>
      </g>
    </g>
    <g style="" transform="matrix(0.036668, 0, 0, 0.036668, 36.271755, 6.087388)">
      <g>
        <path d="M399.75,413.943c-4.695-0.277-8.673,3.331-8.928,8.008l-3.97,73.09H125.147l-15.65-288.147 c-0.253-4.675-4.236-8.271-8.928-8.008c-4.677,0.254-8.262,4.25-8.008,8.928l16.086,296.167c0.244,4.498,3.963,8.02,8.468,8.02 h277.768c4.505,0,8.224-3.522,8.468-8.02l4.405-81.11C408.012,418.193,404.426,414.197,399.75,413.943z" style="fill: rgb(0, 0, 0);"/>
      </g>
    </g>
    <g style="" transform="matrix(0.036668, 0, 0, 0.036668, 36.271755, 6.087388)">
      <g>
        <path d="M412.008,45.387h-85.161V27.485C326.848,12.329,314.519,0,299.364,0h-86.728c-15.155,0-27.485,12.329-27.485,27.485 v17.902H99.99c-27.627,0-50.103,22.476-50.103,50.103v25.589c0,4.683,3.797,8.48,8.48,8.48h29.944l2.407,44.335 c0.245,4.521,3.987,8.021,8.46,8.02c0.155,0,0.311-0.003,0.467-0.012c4.677-0.254,8.262-4.25,8.008-8.928l-2.357-43.415h214.118 c4.683,0,8.48-3.797,8.48-8.48s-3.797-8.48-8.48-8.48H66.849V95.489c0-18.275,14.867-33.143,33.143-33.143h93.641h124.736h93.641 c18.275,0,33.143,14.867,33.143,33.143v17.108h-91.815c-4.683,0-8.48,3.797-8.48,8.48s3.797,8.48,8.48,8.48h53.366 l-14.037,258.472c-0.254,4.677,3.331,8.673,8.008,8.928c0.157,0.009,0.312,0.012,0.468,0.012c4.473,0,8.214-3.501,8.46-8.02 l14.087-259.393h29.944c4.683,0,8.48-3.797,8.48-8.48V95.489C462.111,67.863,439.636,45.387,412.008,45.387z M309.888,45.387 H202.112V27.485c0-5.803,4.721-10.524,10.524-10.524h86.728c5.803,0,10.524,4.721,10.524,10.524V45.387z" style="fill: rgb(0, 0, 0);"/>
      </g>
    </g>
  </g>
</svg>