<?xml version="1.0" encoding="utf-8"?>
<svg width="800px" height="800px" viewBox="0 0 24 24" fill="none" xmlns="http://www.w3.org/2000/svg" xmlns:bx="https://boxy-svg.com">
  <path d="M -11.775 -17.58 L -8.095 -15.088 L -7.186 -9.488 L -9.733 -4.997 L -13.817 -4.997 L -16.364 -9.488 L -15.455 -15.088 Z" bx:shape="n-gon -11.775 -10.961 4.707 6.619 7 0 1@dcd17a86" style="fill: rgb(186, 218, 85); transform-box: fill-box; transform-origin: 50% 50%; visibility: hidden;" transform="matrix(-1, 0, 0, -1, 23.55, 22.576999)"/>
  <g>
    <path d="M -11.843 -18.207 L -7.06 -10.397 L -16.627 -10.397 L -11.843 -18.207 Z" bx:shape="triangle -16.627 -18.207 9.567 7.81 0.5 0 1@12c9d883" style="transform-box: fill-box; transform-origin: 50% 50%; fill: rgb(167, 167, 167);" transform="matrix(-1, 0, 0, -1, 23.687, 28.604001)"/>
    <circle cx="11.732" cy="10.632" r="1.244" style="fill: rgb(167, 167, 167);" transform="matrix(4.083529, 0, 0, 2.56937, -36.351467, -18.402891)"/>
  </g>
  <path d="M 11.7 4.25 C 11.286 4.25 10.95 4.586 10.95 5 C 10.95 5.414 11.286 5.75 11.7 5.75 L 11.7 4.25 Z M 13.565 5.376 L 13.856 4.684 L 13.855 4.684 L 13.565 5.376 Z M 15.753 7.2 L 15.127 7.613 L 15.127 7.613 L 15.753 7.2 Z M 16.575 9.94 L 17.325 9.94 L 17.325 9.939 L 16.575 9.94 Z M 15.147 13.433 L 14.536 12.998 C 14.527 13.01 14.519 13.023 14.511 13.036 L 15.147 13.433 Z M 13.731 15.7 L 13.095 15.303 L 13.092 15.307 L 13.731 15.7 Z M 11.7 19 L 11.062 19.394 C 11.198 19.615 11.44 19.75 11.7 19.75 C 11.961 19.75 12.202 19.615 12.339 19.393 L 11.7 19 Z M 9.669 15.707 L 10.308 15.313 L 10.306 15.31 L 9.669 15.707 Z M 8.253 13.436 L 8.89 13.039 C 8.882 13.026 8.873 13.014 8.864 13.001 L 8.253 13.436 Z M 6.825 9.943 L 6.075 9.942 L 6.075 9.943 L 6.825 9.943 Z M 7.647 7.2 L 8.273 7.613 L 8.273 7.613 L 7.647 7.2 Z M 9.835 5.379 L 10.125 6.071 L 10.126 6.07 L 9.835 5.379 Z M 11.701 5.75 C 12.115 5.749 12.451 5.413 12.45 4.999 C 12.449 4.585 12.113 4.249 11.699 4.25 L 11.701 5.75 Z M 11.7 5.75 C 12.24 5.75 12.775 5.858 13.275 6.068 L 13.855 4.684 C 13.172 4.398 12.44 4.25 11.7 4.25 L 11.7 5.75 Z M 13.275 6.068 C 14.025 6.382 14.67 6.919 15.127 7.613 L 16.379 6.787 C 15.761 5.849 14.884 5.116 13.856 4.684 L 13.275 6.068 Z M 15.127 7.613 C 15.58 8.299 15.824 9.11 15.825 9.941 L 17.325 9.939 C 17.323 8.817 16.995 7.719 16.379 6.787 L 15.127 7.613 Z M 15.825 9.94 C 15.825 10.504 15.74 10.917 15.556 11.343 C 15.361 11.793 15.046 12.282 14.536 12.998 L 15.757 13.868 C 16.269 13.151 16.668 12.548 16.932 11.938 C 17.207 11.304 17.325 10.686 17.325 9.94 L 15.825 9.94 Z M 14.511 13.036 L 13.095 15.303 L 14.367 16.097 L 15.783 13.83 L 14.511 13.036 Z M 13.092 15.307 L 11.061 18.607 L 12.339 19.393 L 14.37 16.093 L 13.092 15.307 Z M 12.338 18.606 L 10.307 15.313 L 9.031 16.101 L 11.062 19.394 L 12.338 18.606 Z M 10.306 15.31 L 8.89 13.039 L 7.617 13.833 L 9.033 16.104 L 10.306 15.31 Z M 8.864 13.001 C 8.354 12.284 8.039 11.795 7.844 11.344 C 7.66 10.919 7.575 10.507 7.575 9.943 L 6.075 9.943 C 6.075 10.689 6.193 11.306 6.468 11.94 C 6.732 12.55 7.131 13.152 7.642 13.871 L 8.864 13.001 Z M 7.575 9.944 C 7.576 9.111 7.82 8.3 8.273 7.613 L 7.021 6.787 C 6.405 7.72 6.076 8.819 6.075 9.942 L 7.575 9.944 Z M 8.273 7.613 C 8.73 6.92 9.375 6.385 10.125 6.071 L 9.545 4.687 C 8.517 5.118 7.64 5.849 7.021 6.787 L 8.273 7.613 Z M 10.126 6.07 C 10.626 5.859 11.161 5.751 11.701 5.75 L 11.699 4.25 C 10.959 4.251 10.227 4.4 9.544 4.688 L 10.126 6.07 Z" fill="#000000"/>
  <g id="SVGRepo_bgCarrier" stroke-width="0" transform="matrix(0.356798, 0, 0, 0.356798, 7.589499, 5.866386)" style=""/>
  <g id="SVGRepo_tracerCarrier" stroke-linecap="round" stroke-linejoin="round" transform="matrix(0.356798, 0, 0, 0.356798, 7.589499, 5.866386)" style=""/>
  <circle cx="11.667" cy="9.536" r="1.368" style="stroke: rgb(0, 0, 0); stroke-width: 0.5px; pointer-events: none; visibility: hidden;"/>
  <g id="group-1" stroke-width="0" transform="matrix(1, 0, 0, 1, 8.513421, 1.810124)"/>
  <g id="group-2" stroke-linecap="round" stroke-linejoin="round" transform="matrix(1, 0, 0, 1, 8.513421, 1.810124)"/>
  <g id="Capa_1">
    <path d="M 13.622 8.422 C 13.561 8.184 13.363 7.989 13.105 7.886 L 13.105 7.696 C 13.105 7.495 12.967 7.327 12.781 7.279 C 12.781 7.274 12.782 7.27 12.782 7.265 C 12.782 6.732 12.347 6.297 11.813 6.297 C 11.279 6.297 10.845 6.732 10.845 7.265 L 10.845 8.36 C 10.72 8.405 10.629 8.525 10.629 8.665 L 10.629 12.97 L 10.522 12.97 C 10.462 12.97 10.414 13.018 10.414 13.078 C 10.414 13.137 10.462 13.186 10.522 13.186 L 11.382 13.186 C 11.442 13.186 11.49 13.137 11.49 13.078 C 11.49 13.018 11.442 12.97 11.382 12.97 L 11.275 12.97 L 11.275 8.665 C 11.275 8.525 11.186 8.405 11.06 8.36 L 11.06 7.265 C 11.06 6.85 11.398 6.512 11.813 6.512 C 12.229 6.512 12.567 6.85 12.567 7.265 C 12.567 7.27 12.567 7.274 12.568 7.279 C 12.381 7.327 12.244 7.495 12.244 7.696 L 12.244 7.886 C 11.985 7.989 11.789 8.184 11.727 8.422 C 11.718 8.455 11.725 8.489 11.745 8.516 C 11.766 8.542 11.798 8.557 11.831 8.557 L 12.244 8.557 C 12.244 8.795 12.437 8.988 12.675 8.988 C 12.912 8.988 13.105 8.795 13.105 8.557 L 13.518 8.557 C 13.552 8.557 13.583 8.542 13.604 8.516 C 13.624 8.489 13.631 8.455 13.622 8.422 Z M 10.953 8.557 C 11.011 8.557 11.06 8.605 11.06 8.665 L 11.06 12.109 L 10.845 12.109 L 10.845 8.665 C 10.845 8.605 10.893 8.557 10.953 8.557 Z M 10.845 12.97 L 10.845 12.325 L 11.06 12.325 L 11.06 12.97 L 10.845 12.97 Z M 12.46 7.696 C 12.46 7.577 12.555 7.481 12.675 7.481 C 12.793 7.481 12.889 7.577 12.889 7.696 L 12.889 7.823 C 12.82 7.81 12.748 7.804 12.675 7.804 C 12.601 7.804 12.529 7.81 12.46 7.823 L 12.46 7.696 Z M 12.675 8.772 C 12.555 8.772 12.46 8.675 12.46 8.557 L 12.889 8.557 C 12.889 8.675 12.793 8.772 12.675 8.772 Z M 11.994 8.342 C 12.117 8.149 12.379 8.019 12.675 8.019 C 12.97 8.019 13.232 8.149 13.354 8.342 L 11.994 8.342 Z" style="stroke-width: 0.047; fill: rgb(0, 0, 0);"/>
  </g>
</svg>